<svg width="39" height="49" viewBox="0 0 39 49" fill="none" xmlns="http://www.w3.org/2000/svg">
<g clip-path="url(#clip0)">
<path d="M37.114 19.1433C36.4728 19.2671 35.8068 19.62 35.3012 20.041C33.9447 21.1617 32.6437 22.3629 31.355 23.564C30.5472 24.3194 29.6347 24.4804 28.7961 23.8303C28.0253 23.2297 27.0819 22.5053 26.8291 21.6508C26.4407 20.3444 26.3235 18.8399 26.5517 17.4963C27.0881 14.351 27.8527 11.2366 28.6111 8.13467C28.9379 6.7911 29.203 5.44753 28.5618 4.20303C28.1918 3.48481 27.5321 2.65514 26.8415 2.45701C26.3174 2.30841 25.3308 2.93995 24.9177 3.50338C24.2271 4.4445 23.7276 5.57136 23.3268 6.68584C22.5438 8.87766 21.9148 11.119 21.1502 13.317C20.9653 13.8495 20.5213 14.2891 20.0589 14.9763C19.6149 13.8309 19.2018 13.0136 18.9798 12.1468C18.431 9.97356 17.6726 7.81271 18.1351 5.50945C18.4495 3.9306 18.6962 2.39509 17.0067 1.36729C16.871 1.2868 16.8217 1.05772 16.7354 0.896736C16.3654 0.209473 15.8043 -0.112488 15.0274 0.0237263C14.2073 0.166132 13.7942 0.710989 13.64 1.50351C13.5722 1.85643 13.5291 2.29603 13.3009 2.50654C12.3513 3.40432 12.1664 4.53118 12.2959 5.71996C12.6165 8.60523 13.0111 11.4843 13.3256 14.3758C13.3934 14.9763 13.2516 15.5955 13.2084 16.2085C13.0728 16.2642 12.931 16.3199 12.7953 16.3756C11.6361 15.385 10.4769 14.4005 9.33 13.4223C9.50882 13.1313 9.55814 13.0322 9.6198 12.9455C11.1243 10.8713 10.5139 9.30487 8.02281 8.85908C7.77 8.81574 7.52953 8.74144 7.27672 8.71048C5.56257 8.50616 3.76826 9.80639 3.94091 11.3357C4.18755 13.5213 4.36636 15.7751 5.89553 17.5892C6.56763 18.3879 7.16573 19.2423 7.80083 20.0782C7.38771 20.0844 7.07941 19.9358 6.75878 19.8058C5.58723 19.329 4.44036 18.7408 3.23182 18.4065C1.67182 17.9731 0.882569 18.5055 0.12415 20.1896C-0.233478 20.9945 0.24747 22.3443 1.14154 23.0501C2.30692 23.9727 3.45996 24.9076 4.62534 25.8301C6.60463 27.3904 7.54186 29.6875 8.78739 31.7679C9.97743 33.7553 11.3031 35.6562 12.5363 37.6127C12.8446 38.0956 13.2146 38.6652 13.2146 39.1915C13.2084 40.306 13.7387 46.0084 13.7387 47.1291C13.7387 47.4758 13.7449 47.7111 13.7572 47.8845C14.0408 48.2126 14.2998 48.5656 14.5156 48.9432C14.5218 48.9432 14.5279 48.9432 14.5403 48.9432C14.6081 48.9618 14.6759 48.9742 14.7499 48.9866C15.0151 48.9061 15.2802 48.8442 15.5453 48.7823C15.8413 48.6956 16.1311 48.6089 16.4332 48.5346C16.4394 48.5346 16.4456 48.5346 16.4517 48.5284C17.1855 47.5749 18.1351 46.4542 18.7085 45.3274C18.7208 45.3212 18.7393 45.315 18.7517 45.3026C18.7517 45.3026 18.7578 45.3026 18.7578 45.2964C18.9305 43.8662 19.3806 39.0615 19.4977 37.2783L21.3537 42.8012C21.4524 42.8322 21.4277 43.3275 21.4894 43.4513C21.6928 43.8476 21.2057 43.8352 21.3722 44.25C21.4215 44.2996 21.4585 44.3615 21.4832 44.4482C21.5695 44.733 21.6682 45.0178 21.773 45.2964C21.773 45.2964 21.773 45.3026 21.7792 45.3026C21.9888 45.8413 22.2231 46.3675 22.4513 46.8938C22.7102 46.8505 22.9692 46.801 23.0309 46.7948C23.3947 46.7452 23.9866 46.157 24.4182 45.5131C24.7389 45.767 24.9793 46.2499 25.2075 46.5471C25.4171 46.8257 25.6268 47.1105 25.8364 47.3892C26.2125 47.6182 26.5825 47.8535 26.9586 48.0888C27.2793 47.6987 27.5876 47.3025 27.9144 46.9186C27.9144 46.9124 27.9205 46.9124 27.9267 46.9062C28.0438 45.7174 28.2103 44.6153 28.0993 43.3399C27.8342 40.3679 28.0932 41.6496 27.68 38.69C27.5506 37.7799 27.7972 37.105 28.4076 36.4301C29.2524 35.4952 28.8886 34.5231 29.5175 33.4334C30.4917 31.7431 31.7373 30.3995 33.3959 29.3965C34.7895 28.5544 36.1521 27.6443 37.5272 26.7651C38.1684 26.3564 38.3781 25.762 38.1499 25.0624C37.817 24.0594 37.8848 23.1616 38.5507 22.2886C38.7789 21.9914 38.8282 21.5456 38.9268 21.1555C39.2536 19.9048 38.4151 18.8956 37.114 19.1433Z" fill="black"/>
</g>
<defs>
<clipPath id="clip0">
<rect width="39" height="49" fill="white"/>
</clipPath>
</defs>
</svg>
