<svg width="51" height="44" viewBox="0 0 51 44" fill="none" xmlns="http://www.w3.org/2000/svg">
<path d="M30.3261 14.4672C28.0829 12.2448 26.4113 9.43467 25.3113 6.09033C24.2113 9.43467 22.5505 12.2341 20.2965 14.4672C18.0533 16.6897 15.2278 18.3458 11.8414 19.4356C15.217 20.5255 18.0425 22.1709 20.2965 24.4041C22.5397 26.6265 24.2113 29.4366 25.3113 32.781C26.4113 29.4366 28.0721 26.6372 30.3261 24.4041C32.5693 22.1816 35.3948 20.5255 38.7704 19.4356C35.4056 18.3351 32.5693 16.6897 30.3261 14.4672Z" fill="black"/>
<path d="M47.3656 21.5299C47.344 21.423 47.3225 21.3162 47.3117 21.2093C48.2499 22.0962 49.5117 23.0471 51 23.6561C50.1049 16.5935 45.597 9.77659 43.4508 7.23361C43.0734 6.73142 42.6851 6.23992 42.2969 5.75911C41.8332 5.18213 41.6714 4.66926 41.8547 3.94269C42.0812 3.05585 42.189 2.12628 42.2322 1.20738C42.2538 0.812045 42.0057 0.406022 41.8871 0C41.7037 0.0641088 41.5096 0.117533 41.3263 0.181642C39.9998 0.427392 37.5625 2.24381 36.7105 3.33366C36.6889 3.36571 36.6566 3.39777 36.635 3.42982C36.635 3.44051 36.6242 3.44051 36.6134 3.45119C36.5056 3.60078 36.387 3.76105 36.2683 3.93201C34.5967 6.28266 32.8173 8.56921 31.081 10.8771C31.5124 11.3686 31.9545 11.8494 32.4722 12.2555C32.8712 12.576 33.3242 12.8218 33.7771 13.0355C34.1761 12.4585 34.6399 11.9029 35.2546 11.3473C36.9478 9.80865 37.6703 9.02866 38.1017 11.2725C38.2527 12.0845 38.1772 12.982 38.037 13.8048C37.8645 14.7557 37.6703 15.7067 37.4546 16.6469C38.3174 17.0209 39.2341 17.3521 40.2155 17.6299C41.0243 17.865 41.5743 18.5916 41.5743 19.425C41.5743 20.2584 41.0243 20.9849 40.2155 21.22C38.4037 21.7436 36.7968 22.4274 35.3624 23.2501C34.8124 24.5537 34.1654 25.8252 33.4104 27.0539C31.7281 29.7892 29.5819 32.2467 27.6623 34.8538C27.4466 35.153 27.3388 35.5376 27.177 35.8796C27.5868 35.8582 28.0505 35.9543 28.4064 35.8048C29.2908 35.4308 30.1212 34.9393 31.1888 34.6401C31.0486 34.9286 30.9731 35.2705 30.7682 35.5056C29.3878 37.0549 27.9966 38.6042 26.5515 40.1107C26.4976 40.1642 26.4329 40.2069 26.3466 40.2496C26.1848 40.4206 26.023 40.5809 25.8505 40.7411C25.7427 40.8373 25.6348 40.9335 25.5162 41.0296C25.4083 40.9335 25.3005 40.8373 25.1819 40.7411C25.0093 40.5916 24.8475 40.4206 24.6858 40.2496C24.5995 40.2069 24.524 40.1642 24.4809 40.1107C23.0357 38.6149 21.6445 37.0656 20.2641 35.5056C20.0592 35.2705 19.9837 34.9286 19.8435 34.6401C20.9112 34.95 21.7416 35.4308 22.6259 35.8048C22.9818 35.9543 23.4455 35.8582 23.8554 35.8796C23.6936 35.5376 23.5965 35.153 23.3701 34.8538C21.4504 32.2574 19.3151 29.7999 17.6219 27.0539C16.9317 25.9213 16.3278 24.7567 15.8101 23.56C14.2464 22.5877 12.4777 21.797 10.4502 21.22C9.64136 20.9849 9.09135 20.2584 9.09135 19.425C9.09135 18.5916 9.64136 17.865 10.4502 17.6299C11.561 17.3094 12.5855 16.9247 13.5454 16.4866C13.3405 15.5891 13.1571 14.7023 12.9953 13.7941C12.8444 12.9713 12.7797 12.0738 12.9306 11.2618C13.3512 9.01797 14.0738 9.79796 15.7778 11.3366C16.3925 11.8922 16.8562 12.4585 17.2552 13.0248C17.7082 12.8111 18.1611 12.5653 18.5602 12.2448C19.0778 11.8388 19.52 11.3579 19.9514 10.8664C18.2043 8.55852 16.4356 6.28266 14.764 3.92132C14.5699 3.64352 14.3973 3.39777 14.2248 3.21612C13.3297 2.14764 11.1081 0.502186 9.80313 0.203011C9.57665 0.138902 9.3394 0.0854784 9.1237 0C9.00508 0.406022 8.75703 0.812045 8.7786 1.20738C8.83252 2.12628 8.94037 3.05585 9.16684 3.94269C9.35018 4.67994 9.18841 5.18213 8.72468 5.75911C8.32565 6.25061 7.93741 6.75279 7.54916 7.25498V7.24429C5.40305 9.78728 0.895115 16.6042 0 23.6668C1.49905 23.0685 2.76084 22.0962 3.69909 21.2093C3.67752 21.3162 3.66674 21.4337 3.63438 21.5406C3.11673 23.6882 3.15986 25.8358 3.40791 27.9728L3.39712 27.9835C3.42948 28.2292 3.46183 28.475 3.50497 28.7207C3.54811 29.084 3.60203 29.4473 3.65595 29.8106C3.67752 29.9709 3.7638 30.1204 3.85007 30.2593C4.68048 33.0695 6.75111 36.3711 12.1542 40.645C12.1434 40.6236 12.1326 40.6022 12.1218 40.5809C12.3914 40.8159 12.6395 41.0724 12.9306 41.2967C13.0493 41.2433 13.1571 41.1899 13.2757 41.1365C12.5855 38.9675 11.9061 36.7984 11.2159 34.6401C11.3885 34.544 11.561 34.4478 11.7336 34.3409C13.6963 37.696 15.8209 40.9121 19.3798 42.7606C20.1778 42.8674 20.9543 43.0811 21.7308 43.2841C22.723 43.5512 23.7367 43.7649 24.7505 43.9573C24.8368 43.9679 24.9122 43.9786 24.9985 44C25.1064 43.9786 25.2142 43.9466 25.3113 43.9145C25.3652 43.9252 25.4191 43.9252 25.4838 43.9359C25.7103 43.9573 25.9368 43.9573 26.1632 43.9679C26.1848 43.9679 26.2064 43.9573 26.228 43.9573C27.2417 43.7649 28.2554 43.5512 29.2476 43.2841C30.0241 43.0811 30.8006 42.8674 31.5986 42.7606C35.1683 40.9228 37.2821 37.7067 39.2449 34.3409C39.4174 34.4371 39.59 34.5333 39.7625 34.6401C39.0723 36.8091 38.3929 38.9781 37.7027 41.1365C37.8213 41.1899 37.9292 41.2433 38.0478 41.2967C38.3282 41.0724 38.5762 40.8266 38.8351 40.6022C38.8243 40.6236 38.8243 40.6343 38.8135 40.6557C44.195 36.3924 46.2656 33.1015 47.1068 30.3021C47.2146 30.1418 47.3009 29.9815 47.3225 29.8213C47.4088 29.2657 47.4842 28.7207 47.549 28.1651C47.5597 28.101 47.5705 28.0476 47.5705 27.9835C47.8401 25.8252 47.8833 23.6882 47.3656 21.5299Z" fill="black"/>
</svg>
