<svg width="43" height="50" viewBox="0 0 43 50" fill="none" xmlns="http://www.w3.org/2000/svg">
<g clip-path="url(#clip0)">
<path d="M42.4886 26.2426C42.5584 24.9278 42.4731 23.6206 42.2016 22.3134C41.4572 18.7567 39.5495 15.5571 37.2619 12.7451C36.0909 11.3011 34.8191 9.56832 33.0355 8.83873C32.7641 8.72473 32.5858 8.93753 32.578 9.16553C32.4927 9.24913 32.4307 9.37072 32.4539 9.52272C32.6556 10.9363 32.7719 12.3651 32.8107 13.7939C31.5079 13.0643 30.2438 12.2967 29.0496 11.3999C27.0489 9.88752 24.6604 7.94194 24.0245 5.41876C23.6833 4.53716 23.4507 3.61757 23.3189 2.68278C23.0242 1.81639 22.8691 0.911993 22.8846 0C21.5663 0.782794 20.3953 1.77079 19.2787 2.81958C18.4877 3.96717 17.8983 5.27436 17.464 6.58155C17.4408 6.64995 17.4253 6.72595 17.402 6.79435C16.6343 8.68673 15.9906 10.6247 15.1686 12.4943C14.4242 14.1891 13.4006 15.8079 11.8651 16.9099C11.6945 17.0315 11.5084 17.1531 11.3068 17.2519C11.2292 17.0923 11.1517 16.9327 11.0819 16.7731C11.0664 16.7351 11.0586 16.6971 11.0431 16.6591C10.826 16.0131 10.6476 15.3443 10.5236 14.6755C10.3452 13.7255 10.2987 12.7527 10.3762 11.7951C10.5313 11.2555 10.7174 10.7235 10.9656 10.2143C10.9811 10.1839 10.9733 10.1611 10.9811 10.1383C10.9656 10.1231 10.9501 10.1079 10.9423 10.0927C10.857 10.0775 10.7795 10.0547 10.7019 10.0167C10.6864 10.0091 10.6786 10.0015 10.6631 9.99392C10.5546 10.0471 10.446 10.1079 10.3374 10.1611C9.78685 10.4347 9.19749 10.6931 8.67793 11.0275C8.18162 11.3467 7.71634 11.7723 7.19677 12.0687C6.89434 12.3195 6.5919 12.5703 6.29722 12.8287C5.73113 13.5583 5.21932 14.3335 4.75403 15.1391C4.18794 16.1119 3.70714 17.1911 3.49777 18.2855C2.49741 23.5978 3.50552 28.6062 6.30498 33.2269C7.12698 34.5797 8.08081 35.8565 9.05016 37.1257C9.63951 37.6881 10.2676 38.2125 10.9268 38.6837C10.9346 38.6913 10.9501 38.6989 10.9578 38.6989C13.0671 40.7281 15.6882 42.2025 18.635 43.0081C20.31 43.4641 22.0548 43.7985 23.8074 43.9505C22.5822 44.1632 21.3337 44.3076 20.0774 44.3C18.5342 44.3 16.96 44.148 15.4478 43.8212C14.5793 43.6312 13.4859 43.3577 12.7181 42.7801C12.6328 42.7497 12.5475 42.7269 12.4622 42.6965C10.8493 42.0429 9.09668 41.4729 7.79389 40.4089C4.78505 37.9617 3.08676 34.6101 2.01661 30.9698C1.71418 29.9362 1.44276 28.895 1.1791 27.8538C0.992987 27.5574 0.830137 27.2458 0.659533 26.9418C0.550967 27.0178 0.4424 27.0786 0.326079 27.1318C0.186494 28.7886 0.01589 30.4454 0.00813528 32.1021C0.000380549 34.4581 0.473419 36.8369 1.24889 39.0637C1.79948 40.6369 2.54393 42.1417 3.43573 43.5476C3.49777 43.6085 3.55205 43.6693 3.62184 43.73C5.56052 45.5312 7.68532 47.0284 10.1979 47.9328C11.6092 48.4344 13.0516 48.8676 14.5017 49.2628C15.5796 49.5592 16.6963 49.9392 17.7975 49.9468C19.9378 49.962 22.0704 50.1596 24.2417 49.6884C26.9558 49.1032 29.6467 48.5484 32.1127 47.2716C33.4388 46.5876 34.7881 45.8808 35.9513 44.9688C37.859 43.4716 39.6581 41.8301 40.9066 39.7021C42 37.8401 42.8763 35.9173 42.9694 33.7285C43.0702 31.2054 42.9383 28.705 42.4886 26.2426ZM31.9266 32.9989C31.1899 33.5461 30.4455 34.0857 29.639 34.5037C28.1501 35.2713 26.5991 35.9629 25.0094 36.5253C22.3107 37.4753 19.6199 37.0117 17.0143 36.0769C16.0372 35.7273 15.1376 35.2713 14.3234 34.7013C14.2691 34.6709 14.2148 34.6405 14.1683 34.6101C12.5243 33.6449 10.9888 32.3833 10.0738 30.7266C9.96521 30.5974 9.8644 30.4682 9.76359 30.3314C9.73257 30.301 9.6938 30.2706 9.66278 30.2326C9.6085 30.1262 9.54646 30.0274 9.49218 29.921C9.70931 29.5942 9.9497 29.2826 10.1823 28.9634C10.7097 28.2794 11.2525 27.603 11.8186 26.9494C12.9275 25.6802 14.1605 24.4946 15.5874 23.575C16.9677 22.6782 18.542 22.0094 20.1937 21.8042C21.4577 21.6522 22.745 21.789 24.0168 21.979C25.5445 22.4426 26.9713 23.2102 28.2121 24.2438C29.1349 25.019 29.9492 25.9462 30.7944 26.805C31.0193 27.033 31.2442 27.2686 31.4536 27.5118C31.2365 26.0754 30.8254 24.677 30.3136 23.309C29.9414 22.3134 29.4296 21.409 28.8402 20.5426C28.5688 20.2842 28.2896 20.041 28.0105 19.7902C27.3901 19.1214 26.7077 18.5135 25.9865 17.9587C25.0327 17.2291 24.0245 16.5603 22.9854 15.9523C23.063 15.9599 23.1328 15.9675 23.2103 15.9751C26.033 16.7655 28.6929 18.0803 31.0271 19.8206C31.6087 20.4134 32.1282 21.0746 32.5392 21.8194C32.8494 22.283 33.1364 22.7542 33.4155 23.2254C34.5245 25.1558 35.0052 27.2914 35.1914 29.4878C34.1212 30.6962 33.0355 31.8589 31.9266 32.9989Z" fill="black"/>
<path d="M15.5638 33.3181C17.3784 34.3213 19.4179 35.0965 21.4729 35.1345C23.1324 35.1649 24.6601 34.6557 26.1102 33.9489C26.3118 33.5233 26.4437 33.0673 26.5212 32.5809C26.8857 30.2934 26.1102 28.3858 24.1638 27.0786C22.1553 25.7334 20.0228 25.741 17.9212 26.9418C15.9748 28.0514 14.8271 30.6353 15.3932 32.7861C15.4319 32.9685 15.5017 33.1433 15.5638 33.3181Z" fill="black"/>
</g>
<defs>
<clipPath id="clip0">
<rect width="43" height="50" fill="white"/>
</clipPath>
</defs>
</svg>
