<svg width="42" height="46" viewBox="0 0 42 46" fill="none" xmlns="http://www.w3.org/2000/svg">
<g clip-path="url(#clip0)">
<path fill-rule="evenodd" clip-rule="evenodd" d="M39.4449 20.0632C42.4623 14.5107 44.4207 6.38067 35.7635 0C38.1001 6.00882 35.318 14.215 27.888 16.9447C23.4753 15.1277 18.5331 15.1277 14.1205 16.9447C6.68203 14.2065 3.90837 6.00882 6.24497 0C-2.40382 6.38067 -0.462254 14.4938 2.55516 20.0463L3.81591 26.4439L1.66422 32.9598C4.24457 38.1742 11.5486 46 20.9958 46C30.4431 46 36.8898 39.0446 40.3274 32.9598L38.1757 26.4439L39.4449 20.0632ZM9.18674 29.6976C8.78329 30.0103 8.42188 30.3737 8.11089 30.7878V28.6158C8.11089 28.6158 9.82552 24.2719 12.4059 24.2719C14.9862 24.2719 16.7008 28.6158 16.7008 28.6158V30.7878C14.9274 28.3877 11.557 27.8975 9.18674 29.6976ZM18.3062 38.9348C16.6084 38.2249 15.2552 36.8473 14.5407 35.1317V32.9598C18.3566 35.8501 23.6098 35.8501 27.4257 32.9598V35.1317H27.4341C25.9548 38.7319 21.8783 40.4306 18.3062 38.9348ZM33.8892 30.7878C32.3847 28.3877 29.2412 27.6777 26.8709 29.199C26.2322 29.6046 25.7026 30.1455 25.2992 30.7878V28.6158C25.2992 28.6158 26.5852 24.2719 29.5942 24.2719C32.6032 24.2719 33.8892 28.6158 33.8892 28.6158V30.7878Z" fill="#010101"/>
</g>
<defs>
<clipPath id="clip0">
<rect width="42" height="46" fill="white"/>
</clipPath>
</defs>
</svg>
