<svg width="33" height="49" viewBox="0 0 33 49" fill="none" xmlns="http://www.w3.org/2000/svg">
<g clip-path="url(#clip0)">
<path d="M27.2682 43.6406C24.8233 43.1302 22.8294 43.3854 22.2101 41.9938C21.9221 41.3389 20.5476 37.872 21.0909 35.5992C21.531 33.7597 23.1011 30.0953 23.6824 28.7615C22.8023 28.5882 21.933 28.1644 21.0203 27.8659C19.537 27.4469 18.9394 26.7198 18.771 26.0024C18.7656 25.9879 18.7656 25.9735 18.7656 25.9638C18.733 25.8146 18.7167 25.6653 18.7167 25.516C18.7167 23.98 20.9551 23.3443 23.2858 22.2898C23.5629 22.1646 23.84 22.0346 24.1008 21.8998C24.3398 21.7794 24.5789 21.6542 24.8125 21.5194C28.4852 19.3718 27.73 17.7683 27.73 15.0669C27.73 10.5213 27.529 9.79422 27.529 7.76219C27.529 3.52958 30.2346 3.53439 33.0054 1.17974C32.348 0.409296 30.6258 0.0337068 28.7188 0.00481525H28.6971C28.5667 0.00481525 28.4309 0.00481525 28.295 0.00481525H4.70497C4.57458 0 4.43876 0 4.30836 0H4.28663C2.37965 0.0288915 0.657392 0.404481 0 1.17492C2.77083 3.52958 5.47646 3.52476 5.47646 7.75737C5.47646 9.78941 5.27544 10.5165 5.27544 15.0621C5.27544 17.7635 4.52025 19.3669 8.19295 21.5145C8.42657 21.6494 8.66562 21.7746 8.90468 21.895C9.16546 22.0298 9.44254 22.1598 9.71962 22.285C12.0504 23.3395 14.2888 23.98 14.2888 25.5112C14.2888 25.6557 14.2725 25.8049 14.2399 25.959C14.2344 25.9735 14.2344 25.9879 14.2344 25.9975C14.066 26.715 13.4684 27.4421 11.9797 27.8659C11.0616 28.1644 10.1923 28.5833 9.31758 28.7615C9.90435 30.0953 11.4745 33.7597 11.9091 35.5992C12.4524 37.872 11.0833 41.3389 10.7899 41.9938C10.176 43.3854 8.17665 43.1302 5.73181 43.6406C3.28696 44.151 3.15114 46.3468 3.15114 46.3468H29.8489C29.8489 46.3468 29.713 44.1462 27.2682 43.6406Z" fill="black"/>
<path d="M16.5 49C8.12773 49 3.15111 46.3419 3.15111 46.3419L16.5 45.4126V49Z" fill="black"/>
<path d="M16.5 49C24.8722 49 29.8489 46.3419 29.8489 46.3419L16.5 45.4126V49Z" fill="black"/>
</g>
<defs>
<clipPath id="clip0">
<rect width="33" height="49" fill="white"/>
</clipPath>
</defs>
</svg>
