<svg width="36" height="52" viewBox="0 0 36 52" fill="none" xmlns="http://www.w3.org/2000/svg">
<path d="M32.55 16.21C31.52 10.33 27.1 5.62 21.37 4.17V0H13.94V4.17C8.21 5.61 3.79 10.32 2.76 16.21L17.65 10.49L32.55 16.21Z" fill="black"/>
<path d="M2.53 38.92V42.78L17.65 51.52L32.78 42.78V38.92L17.65 44.73L2.53 38.92Z" fill="black"/>
<path d="M17.66 14.19L0 20.97V34.54L17.66 41.32L35.31 34.54V20.97L17.66 14.19ZM6.77 31.23C6.77 31.58 6.66 31.91 6.48 32.18L3.4 31.61C3.37 31.49 3.36 31.36 3.36 31.23V24.27C3.36 24.11 3.38 23.95 3.43 23.8L6.43 23.24C6.65 23.53 6.78 23.88 6.78 24.27V31.23H6.77ZM15.16 33.22C15.16 33.41 15.13 33.6 15.07 33.77L11.75 33.15V22.28C11.75 22.27 11.75 22.26 11.75 22.25L15.04 21.64C15.12 21.84 15.16 22.05 15.16 22.28V33.22ZM23.56 33.16L20.24 33.78C20.18 33.61 20.15 33.42 20.15 33.23V22.28C20.15 22.06 20.19 21.84 20.27 21.64L23.56 22.25C23.56 22.26 23.56 22.27 23.56 22.28V33.16ZM31.95 31.23C31.95 31.36 31.93 31.49 31.91 31.61L28.83 32.18C28.65 31.91 28.54 31.58 28.54 31.23V24.27C28.54 23.88 28.67 23.53 28.89 23.24L31.89 23.8C31.93 23.95 31.96 24.11 31.96 24.27V31.23H31.95Z" fill="black"/>
</svg>
