<svg width="46" height="45" viewBox="0 0 46 45" fill="none" xmlns="http://www.w3.org/2000/svg">
<g clip-path="url(#clip0)">
<path d="M45.8077 19.0824C45.7303 18.7037 45.6689 18.333 45.5621 17.9462C45.4419 17.5513 45.3325 17.1646 45.1749 16.7616C45.0895 16.5575 45.0014 16.3534 44.9079 16.1519C44.8092 15.9478 44.7371 15.7517 44.6062 15.5422C44.4861 15.3353 44.3606 15.1285 44.2324 14.9244L44.0375 14.6181C43.9708 14.5161 43.9227 14.457 43.8667 14.3737C42.9936 13.1435 41.8269 11.8837 40.2409 10.9221C38.679 9.94973 36.7433 9.35073 34.9144 9.23791C33.0722 9.10898 31.3528 9.37222 29.8202 9.81811C29.3423 9.95778 28.8804 10.1136 28.4292 10.2882C26.7071 11.4727 24.9743 12.6761 23.1321 13.6082C21.3406 14.5161 18.8148 15.5798 16.767 15.1607C16.6282 15.1312 16.4973 15.0936 16.3692 15.0506C15.424 15.0802 14.4869 14.8921 13.9636 14.2367C13.9075 14.1642 13.8595 14.0917 13.8194 14.0165C13.0612 13.5679 12.6847 12.7057 13.0772 11.6044C13.4029 10.6884 14.0971 9.87989 14.8981 9.18956C15.8566 8.25212 17.0954 7.406 18.433 6.71568C21.4928 5.17387 25.1559 4.41907 28.8057 4.916C30.6292 5.16849 32.4501 5.7272 34.1722 6.60555C35.897 7.48121 37.5043 8.68189 38.938 10.1109C37.9368 8.3515 36.6712 6.68882 35.1147 5.25982C33.5635 3.82814 31.7319 2.63283 29.7188 1.75448C27.7083 0.862697 25.5163 0.341596 23.2763 0.115964C21.0309 -0.115039 18.7401 0.0192653 16.452 0.443667C14.1719 0.902988 11.8917 1.64972 9.6677 2.95247C8.55968 3.61594 7.45701 4.40833 6.41307 5.48545C6.15676 5.77286 5.89511 6.04147 5.64681 6.35843C5.40117 6.6915 5.15554 7.00846 4.9286 7.37108C4.81646 7.5618 4.707 7.75251 4.59753 7.94859C4.49073 8.15005 4.3786 8.32464 4.28782 8.55565C4.19437 8.77591 4.10092 8.99885 4.01282 9.22448L3.88466 9.56293C3.84194 9.67575 3.82325 9.75096 3.79121 9.84765C3.42277 10.9758 3.15043 12.2624 3.13174 13.6592C2.35213 14.8653 1.68465 16.168 1.18003 17.5621C0.453817 19.5498 0.0479898 21.7094 0.00527112 23.9147C-0.0507971 26.1253 0.304302 28.3628 0.945082 30.5332C1.58319 32.7116 2.57907 34.7933 3.8366 36.7596C5.1235 38.7097 6.67739 40.5469 8.71988 42.121C9.75047 42.8999 10.8985 43.6252 12.2842 44.1866C12.6447 44.3182 12.9917 44.4579 13.3762 44.568C13.774 44.6701 14.1585 44.7775 14.5803 44.8527C14.7966 44.885 15.0155 44.9145 15.2371 44.9414C15.4614 44.9629 15.667 45.0032 15.9126 45.0005C16.1503 45.0058 16.3906 45.0058 16.6308 45.0005L16.9913 44.9924C17.1114 44.987 17.1889 44.979 17.2876 44.9709C18.7881 44.8635 20.4648 44.517 22.1068 43.6547C22.5928 43.4076 23.0653 43.1095 23.5219 42.7818C25.3134 42.9322 27.161 42.857 28.9952 42.4863C31.0591 42.0753 33.1016 41.299 34.9972 40.187C36.9009 39.083 38.6176 37.6164 40.1234 35.9322C41.6373 34.2481 42.8868 32.3114 43.9014 30.2082C44.8839 28.0862 45.6368 25.7976 45.9092 23.2244C46.0346 21.9297 46.0533 20.5651 45.8077 19.0824ZM17.9364 34.1594C17.4025 35.2607 16.177 35.7147 15.0236 35.5025C14.9595 35.5025 14.8954 35.5025 14.8313 35.5078C14.3027 35.4917 13.6352 35.3359 12.9544 35.0834C11.574 34.5677 10.1429 33.6491 8.85071 32.5343C6.27157 30.2727 4.18369 27.1487 3.25723 23.5628C2.79533 21.7712 2.61912 19.8614 2.77398 17.9274C2.84339 17.0141 2.99558 16.0955 3.21184 15.1849C3.40942 16.9174 4.04753 18.6956 4.97666 20.1461C5.67617 21.2608 6.50118 22.2037 7.37157 23.0095C7.41963 23.0337 7.46769 23.0632 7.51308 23.1008C9.26988 24.4841 11.1815 25.5881 13.2107 26.5121C14.8393 27.2535 16.3906 28.0728 17.341 29.6602C18.0859 30.8958 18.6039 32.7815 17.9364 34.1594ZM37.7285 27.9573C37.7285 27.9599 37.7259 27.9626 37.7259 27.9653C37.7178 28.0083 37.7152 28.0539 37.7072 28.0969C37.1305 31.4921 35.5686 34.9088 33.0081 37.5734C31.7266 38.9031 30.202 40.0473 28.4773 40.923C27.0542 41.6509 25.4976 42.1774 23.877 42.5185C24.8168 41.7852 25.6552 40.9015 26.312 39.9533C27.3799 38.4384 28.0527 36.824 28.4746 35.2768C28.6855 34.4979 28.8404 33.727 28.9445 32.9534C28.9739 32.7412 28.9899 32.5236 29.0112 32.3087C29.0646 29.5716 29.3183 26.7727 30.6853 24.3606C31.5957 22.7543 34.5059 19.257 36.6659 20.4416C39.0742 21.7604 38.3426 25.8782 37.7285 27.9573Z" fill="black"/>
</g>
<defs>
<clipPath id="clip0">
<rect width="46" height="45" fill="white"/>
</clipPath>
</defs>
</svg>
