<svg width="43" height="49" viewBox="0 0 43 49" fill="none" xmlns="http://www.w3.org/2000/svg">
<path d="M35.09 14.49C32.59 0.37 21.35 0 21.35 0C21.35 0 10.12 0.37 7.62 14.49C5.12 28.61 0 29.85 0 29.85C0 29.85 3.74 43.28 16.2 48.7C16.2 48.7 9.83 38.31 9.83 30.54C9.83 26.33 10.97 19.35 21.36 19.35C31.75 19.35 32.89 26.32 32.89 30.54C32.89 38.31 26.52 48.7 26.52 48.7C38.98 43.28 42.72 29.84 42.72 29.84C42.72 29.84 37.59 28.6 35.09 14.49Z" fill="#010101"/>
<path d="M21.35 22.49C21.35 22.49 14.32 22.3 12.54 27.27C14.51 32.89 16.96 39.45 21.35 39.45C25.75 39.45 28.19 32.89 30.16 27.27C28.39 22.3 21.35 22.49 21.35 22.49Z" fill="#010101"/>
</svg>
