<svg width="46" height="49" viewBox="0 0 46 49" fill="none" xmlns="http://www.w3.org/2000/svg">
<path d="M13.6014 22.7603C12.5754 22.6688 10.8127 24.33 10.6023 26.5537C10.3918 28.7905 11.8256 30.7395 12.8516 30.8311C13.8776 30.9226 14.1144 29.1175 14.3249 26.8938C14.5222 24.6701 14.6274 22.8519 13.6014 22.7603Z" fill="black"/>
<path d="M32.3986 22.7603C31.3726 22.8518 31.4647 24.67 31.6751 26.9068C31.8856 29.1436 32.1224 30.9356 33.1484 30.8441C34.1744 30.7525 35.5951 28.7904 35.3977 26.5667C35.1873 24.3299 33.4246 22.6556 32.3986 22.7603Z" fill="black"/>
<path d="M44.5534 4.53897C44.1061 4.55206 41.2254 7.54752 39.5285 9.75814C39.3312 7.37747 38.0684 3.92419 37.6869 3.85878C37.3054 3.79338 35.5296 4.78751 33.767 7.0897C29.1499 2.26295 23.0069 0 23.0069 0C23.0069 0 16.8508 2.26295 12.2337 7.0897C10.471 4.78751 8.6952 3.79338 8.31373 3.85878C7.93226 3.92419 6.66946 7.37747 6.47215 9.75814C4.77527 7.54752 1.89451 4.55206 1.44727 4.53897C1.00003 4.52589 -1.30194 11.0139 1.02634 18.5745C3.34147 26.1351 3.10469 25.9781 3.39408 29.8107C3.69663 33.6434 4.51218 37.8292 10.5762 40.9816C14.6672 43.1006 17.8505 49 22.9937 49C28.137 49 31.3335 43.0876 35.4112 40.9816C41.4884 37.8292 42.304 33.6434 42.5934 29.8107C42.8959 25.9781 42.646 26.1351 44.9611 18.5745C47.3026 11.0139 45.0006 4.52589 44.5534 4.53897ZM20.5339 42.9306C20.1393 43.323 19.2448 43.0876 18.5608 42.3943C17.8636 41.701 17.6269 40.8246 18.0215 40.4322C18.4161 40.0398 19.3106 40.2752 19.9946 40.9685C20.6918 41.6618 20.9285 42.5382 20.5339 42.9306ZM19.771 33.3948C18.9949 34.4805 11.1682 32.3091 7.98487 29.2483C4.81473 26.1874 6.68261 19.3986 7.98487 18.9146C9.28713 18.4437 14.5356 20.7328 16.2851 22.9303C19.1922 26.6191 20.1788 32.8193 19.771 33.3948ZM27.4004 42.4074C26.7032 43.1006 25.8219 43.3361 25.4273 42.9437C25.0326 42.5513 25.2694 41.6618 25.9666 40.9816C26.6637 40.2883 27.5451 40.0529 27.9397 40.4453C28.3343 40.8377 28.0975 41.7141 27.4004 42.4074ZM38.0158 29.2483C34.8456 32.3091 27.0057 34.4674 26.2297 33.3948C25.8087 32.8062 26.7953 26.606 29.7155 22.9434C31.465 20.7459 36.7135 18.4437 38.0158 18.9277C39.318 19.3986 41.1859 26.1874 38.0158 29.2483Z" fill="black"/>
<rect x="17" y="38" width="13" height="6" fill="black"/>
</svg>
