<svg width="36" height="59" viewBox="0 0 36 59" fill="none" xmlns="http://www.w3.org/2000/svg">
<g clip-path="url(#clip0)">
<path d="M15.59 58.41C15.59 49.35 0 45.47 0 29.88C0 14.29 22.78 13.18 22.78 25.46C22.78 27.3 18.58 30.33 18.58 27.64C18.58 23.14 8.52 21.26 8.52 30.55C8.52 36.08 10.51 39.29 15.27 42.61C15.37 45.36 16.7 49.57 15.59 58.41Z" fill="black"/>
<path d="M13.01 31.99C13.01 31.99 14.6 43.95 26.36 39.16C38.12 34.37 36.42 21.82 30.15 14.45C23.88 7.08 17.2 9.97 17.3 0C14.91 1.69 12.82 7.84 15.11 10.75C17.4 13.66 29.36 19.45 26.67 29.36C23.98 39.27 15.31 36.67 13.01 31.99Z" fill="black"/>
</g>
<defs>
<clipPath id="clip0">
<rect width="35.05" height="58.41" fill="white"/>
</clipPath>
</defs>
</svg>
