<svg width="34" height="55" viewBox="0 0 34 55" fill="none" xmlns="http://www.w3.org/2000/svg">
<g clip-path="url(#clip0)">
<path d="M17.0015 39.7108C11.188 33.7432 5.07473 33.5803 2.0075 33.9921L1.51093 40.5908C1.51093 40.5908 8.80205 37.8174 17.0015 46.2354C25.201 37.8204 32.4921 40.5908 32.4921 40.5908L31.9956 33.9921C28.9283 33.5803 22.815 33.7432 17.0015 39.7108Z" fill="black"/>
<path d="M31.7049 24.217C32.7495 22.5221 33.3369 20.6228 33.3369 18.6138C33.3369 13.5648 29.6368 9.20025 24.2533 7.09649L17.0015 0L9.74975 7.09649C4.36922 9.19729 0.666132 13.5648 0.666132 18.6138C0.666132 20.6228 1.25354 22.5221 2.29816 24.217L0 32.1816C0 32.1816 8.799 29.0497 17.0015 37.4647C25.201 29.0497 34.003 32.1816 34.003 32.1816L31.7049 24.217ZM8.09654 18.8776C7.53638 20.1428 7.22451 21.488 7.42132 22.9073C7.5606 23.8999 8.02084 24.774 8.67486 25.5C7.00953 24.7325 5.25033 23.0614 5.12619 19.4287C4.89002 12.4181 16.5685 8.53356 16.5685 8.53356C16.5685 8.53356 9.19263 13.7337 8.09654 18.8776Z" fill="black"/>
</g>
<defs>
<clipPath id="clip0">
<rect width="34" height="55" fill="white"/>
</clipPath>
</defs>
</svg>
