<svg width="51" height="47" viewBox="0 0 51 47" fill="none" xmlns="http://www.w3.org/2000/svg">
<g clip-path="url(#clip0)">
<path d="M24.02 33.47C24.41 33.74 24.78 33.86 25.16 33.86C25.54 33.86 25.91 33.74 26.3 33.47C26.68 33.2 27.07 32.78 27.41 32.22C28.09 31.1 28.55 29.45 28.55 27.62C28.55 26.24 28.29 24.97 27.87 23.95C27.45 22.93 26.87 22.17 26.29 21.77C25.9 21.5 25.53 21.38 25.15 21.38C24.77 21.38 24.4 21.5 24.01 21.77C23.63 22.04 23.24 22.46 22.9 23.02C22.22 24.14 21.76 25.79 21.76 27.62C21.76 29 22.02 30.27 22.44 31.29C22.85 32.31 23.44 33.07 24.02 33.47Z" fill="black"/>
<path d="M50.06 20.86C49.38 17.06 47 14.01 45.79 10.09C45.39 10.69 45.03 11.03 44.92 11.44C44.64 12.5 44.39 13.59 44.27 14.68C44.12 16.16 43.33 16.95 41.84 16.91C40.34 16.87 39.08 15.82 38.53 14.06C37.36 10.28 36.67 6.42 36.68 2.44C36.68 1.67 36.35 0.9 36.18 0.13C36.05 0.09 35.91 0.05 35.77 0C34.89 0.75 33.9 1.39 33.15 2.25C30.53 5.27 29.15 8.89 28.55 12.79C28.1 15.75 28.55 18.6 30.23 21.16C30.35 21.34 30.56 21.47 30.74 21.63C32.01 19.44 33.46 19.02 35.5 20.13C37.51 21.23 38.02 23 37.66 25.16C37.45 26.43 36.76 27.26 35.33 27.58C33.28 28.04 31.92 26.98 30.44 25.91C30.43 25.9 30.42 25.89 30.41 25.89C30.49 26.45 30.53 27.02 30.53 27.62C30.53 29.24 30.23 30.76 29.71 32.05C29.18 33.34 28.42 34.41 27.43 35.11C26.77 35.57 25.98 35.86 25.15 35.86C24.32 35.86 23.53 35.58 22.87 35.11C22.2 34.64 21.65 34.01 21.19 33.26C20.28 31.76 19.76 29.78 19.76 27.62C19.76 27.02 19.81 26.45 19.89 25.89C18.95 26.48 18.05 27.18 17.03 27.57C15.37 28.21 13.34 27.22 12.82 25.63C12.23 23.84 12.6 21.22 14.99 20.07C17.01 19.1 18.23 19.46 19.78 21.82C19.92 21.56 20.03 21.34 20.16 21.14C21.44 19.15 22.04 16.97 21.94 14.62C21.86 12.77 21.43 11 20.91 9.19C20.39 7.42 19.59 5.86 18.72 4.31C17.72 2.53 16.47 0.92 14.29 0.1C14.07 0.72 13.75 1.28 13.69 1.86C13.66 2.12 13.65 2.38 13.64 2.64C15.44 7.63 13.41 12.3 11.28 15.17C11.27 15.19 11.25 15.21 11.24 15.23C11.22 15.26 11.2 15.29 11.17 15.32C10.76 15.86 10.15 16.35 9.58003 16.65C7.82003 17.58 6.26003 16.49 6.10003 14.54C6.00003 13.45 5.70003 12.37 5.41003 11.31C5.31003 10.95 4.94003 10.66 4.68003 10.32C3.77003 12.24 2.86003 13.95 2.13003 15.73C1.43003 17.45 0.730026 19.21 0.360026 21.02C-0.239974 23.88 -0.229974 26.79 1.55003 29.31C3.11003 31.53 4.84003 33.64 6.52003 35.78C7.12003 36.54 7.76003 37.27 8.40003 38C8.77003 38.42 9.18003 38.81 9.58003 39.21C9.66003 39.16 9.74003 39.12 9.82003 39.07C9.80002 38.78 9.73003 38.49 9.76003 38.21C9.85003 37.36 9.83003 36.46 10.13 35.68C10.82 33.87 13.22 33.03 14.58 34.23C15.58 35.11 16.49 36.29 16.98 37.52C17.76 39.49 18.86 41.19 20.49 42.42C21.99 43.55 23.43 44.68 24.43 46.29C24.92 47.07 25.28 46.9 25.83 46.28C26.91 45.08 27.96 43.78 29.26 42.87C31.05 41.63 32.21 40 33.17 38.15C33.61 37.3 33.92 36.37 34.43 35.58C35.93 33.26 38.48 33 39.87 35.12C40.41 35.94 40.41 37.13 40.61 38.16C40.67 38.46 40.58 38.79 40.55 39.1C40.64 39.14 40.73 39.18 40.82 39.22C41.23 38.78 41.67 38.35 42.05 37.89C43.41 36.27 44.63 34.54 46.11 33.04C49.52 29.61 50.92 25.67 50.06 20.86Z" fill="black"/>
</g>
<defs>
<clipPath id="clip0">
<rect width="50.3" height="46.8" fill="white"/>
</clipPath>
</defs>
</svg>
