<svg width="50" height="41" viewBox="0 0 50 41" fill="none" xmlns="http://www.w3.org/2000/svg">
<path d="M39.55 19.1868L50 7.80682L34.05 6.63682L36.71 9.12682L34.18 10.0668C33.51 8.93682 32.73 7.87682 31.84 6.93682C30.86 5.88682 29.78 4.96682 28.63 4.19682C27.49 3.40682 26.29 2.75682 25.06 2.21682C22.6 1.13682 20.04 0.496819 17.49 0.196819C16.21 0.0468191 14.94 -0.0231809 13.66 0.00681907C12.39 0.0368191 11.12 0.126819 9.87 0.386819C12.25 1.22682 14.52 2.09682 16.69 3.09682C17.96 3.67682 19.18 4.29682 20.35 4.96682L0 24.0468L27.55 31.9168C25.98 34.7668 23.93 37.5268 21.58 40.2068C26.36 38.5168 30.62 35.1668 33.53 30.5968C34.29 29.4668 34.85 28.2068 35.39 26.9368C35.61 26.2768 35.83 25.6168 36.03 24.9368C36.14 24.6068 36.22 24.2668 36.27 23.9168L36.45 22.8768L36.62 21.8268C36.67 21.4768 36.65 21.1268 36.67 20.7668C36.69 20.0568 36.71 19.3468 36.7 18.6468L36.43 16.5468C36.42 16.4868 36.41 16.4368 36.41 16.3768L39.27 15.5468L39.55 19.1868ZM22.74 6.44682C24.58 7.70682 26.2 9.13682 27.44 10.7468C27.8 11.2168 28.13 11.6968 28.43 12.1868L8.76 19.4568L22.67 6.39682C22.69 6.41682 22.72 6.42682 22.74 6.44682ZM30.65 19.0968L30.71 20.6368C30.71 20.8968 30.75 21.1568 30.73 21.4168C30.7 21.6768 30.68 21.9268 30.66 22.1868L30.61 22.9668C30.6 23.2268 30.58 23.4868 30.51 23.7468C30.4 24.2568 30.31 24.7768 30.23 25.3068C29.92 26.3268 29.68 27.3768 29.24 28.3968C29.09 28.7768 28.92 29.1568 28.75 29.5368L9.79 24.1068L30.49 18.1068L30.65 19.0968Z" fill="#010101"/>
</svg>
