<svg width="54" height="54" viewBox="0 0 54 54" fill="none" xmlns="http://www.w3.org/2000/svg">
<g clip-path="url(#clip0)">
<path d="M31.16 16.1401C31.26 17.5301 31.38 21.0701 31.47 22.4401C31.77 27.0901 32.05 31.7401 32.35 36.3901C32.54 39.2701 32.73 42.1501 32.95 45.0301C33.01 45.7501 32.8 46.3401 32.27 46.9501C30.48 49.0201 28.75 51.1301 26.93 53.3101C26.5 52.8001 26.08 52.3201 25.68 51.8401L25.57 51.9001C25.57 51.9001 23.76 49.7401 22.87 48.5001C21.89 47.4901 20.79 46.5401 20.68 45.2001C20.55 43.4901 20.66 41.7601 20.76 40.0401C20.95 36.6001 21.2 33.1701 21.43 29.7301C21.66 26.2401 21.88 22.7501 22.11 19.2701C22.13 18.9601 22.19 16.4801 22.24 16.1301C20.62 16.1301 19 16.1301 17.37 16.1301C17.37 14.9901 17.37 12.3701 17.37 11.2201C23.61 12.4901 29.82 12.6601 36.05 11.1801C36.05 12.3501 36.05 14.9801 36.05 16.1301L31.16 16.1401Z" fill="black"/>
<path d="M28.92 0C27.39 0 25.94 0 24.42 0C24.42 3.74 24.42 7.43 24.42 11.19C25.99 11.19 27.42 11.19 28.92 11.19C28.92 7.44 28.92 3.73 28.92 0Z" fill="black"/>
<path d="M41.18 24.05C43.83 23.79 47 23.28 48.91 22.21C52.67 20.12 53.95 16.92 53.29 11.59C46.66 18.23 40.57 18.74 34.33 19.64C34.57 25.55 34.81 31.41 35.05 37.26C35.94 36.45 36.41 35.7 36.68 34.72C36.79 34.33 36.89 33.93 37 33.53C41.06 34.52 42.61 33.08 44.96 30.44C42.53 31.22 39.6 29.95 38.08 29.13C45.35 31.02 49.78 28.17 51.65 23.46C49.08 24.91 44.46 24.56 41.18 24.05Z" fill="black"/>
<path d="M4.55 22.21C6.46 23.27 9.62 23.79 12.28 24.05C9 24.56 4.38 24.91 1.8 23.46C3.67 28.17 8.1 31.02 15.37 29.13C13.84 29.96 10.92 31.22 8.49 30.44C10.84 33.08 12.39 34.52 16.45 33.53C16.55 33.93 16.66 34.33 16.77 34.72C17.04 35.7 17.51 36.45 18.4 37.26C18.64 31.41 18.88 25.55 19.12 19.64C12.89 18.74 6.79 18.23 0.16 11.59C-0.49 16.92 0.79 20.12 4.55 22.21Z" fill="black"/>
</g>
<defs>
<clipPath id="clip0">
<rect width="53.45" height="53.31" fill="white"/>
</clipPath>
</defs>
</svg>
