<svg width="41" height="45" viewBox="0 0 41 45" fill="none" xmlns="http://www.w3.org/2000/svg">
<g clip-path="url(#clip0)">
<path d="M32.15 35.58C38.7 28.92 39.79 20.42 40.95 16.47C37.57 16.16 34.66 15.55 32.15 14.81L34.91 11.62L38.55 10.94L40.47 0L30.96 5.72L31.61 9.2L28.03 13.34C22.87 11.15 20.47 8.7 20.47 8.7C20.47 8.7 18.07 11.15 12.91 13.34L9.34 9.2L9.99 5.72L0.48 0L2.39 10.93L6.03 11.61L8.79 14.8C6.29 15.54 3.37 16.15 0 16.46C1.16 20.41 2.25 28.92 8.8 35.57L4.14 40.96C3.5 41.89 3.74 43.18 4.67 43.81C5.6 44.45 6.89 44.21 7.52 43.28L11.88 38.23C14.2 39.93 17.02 41.42 20.47 42.54C23.92 41.42 26.74 39.93 29.06 38.23L33.42 43.28C34.06 44.21 35.34 44.45 36.27 43.81C37.2 43.17 37.44 41.89 36.8 40.96L32.15 35.58ZM20.48 36.91V14.73L35.72 21.21C35.72 21.21 25.32 22.57 32.12 27.64C26.46 37.18 20.48 36.91 20.48 36.91Z" fill="black"/>
</g>
<defs>
<clipPath id="clip0">
<rect width="40.95" height="44.18" fill="white"/>
</clipPath>
</defs>
</svg>
