<svg width="41" height="45" viewBox="0 0 41 45" fill="none" xmlns="http://www.w3.org/2000/svg">
<g clip-path="url(#clip0)">
<path d="M40.2807 20.6271C39.9013 19.95 39.3397 19.4163 38.7435 18.9419C37.8518 17.9239 36.9059 16.9454 36.0733 15.8829C34.9451 14.4399 34.2208 12.8141 33.5114 11.1437C33.4129 10.9856 33.3094 10.8275 33.2109 10.6693C32.6886 9.80452 32.1861 8.90017 31.7575 7.96617C31.053 7.16066 30.3435 6.3502 29.6341 5.51504C30.58 4.26477 31.654 2.84647 33.0778 0.963646C33.0631 0.933996 33.0532 0.899403 33.0384 0.869752C32.9744 0.701731 32.9054 0.53371 32.8414 0.365689C32.8315 0.34098 32.8266 0.321213 32.8217 0.311329C32.8167 0.301446 32.8118 0.291562 32.8069 0.276737C32.7724 0.207551 32.7428 0.138366 32.7083 0.0691812C31.6836 0.024705 30.984 -0.0543637 30.3682 0.128483C27.5649 0.968588 24.7665 1.83834 21.9928 2.77234C20.9729 2.88106 19.958 2.98978 18.9382 3.10344C17.6425 3.24676 16.3616 3.43949 15.12 3.80518V3.80024C14.8983 3.8546 14.6766 3.90896 14.4549 3.95838C14.2726 4.01274 14.0903 4.06709 13.913 4.1264C13.8342 4.15111 13.7603 4.15111 13.6864 4.14122H13.6814C12.6173 4.39325 11.5629 4.70459 10.5283 5.07522C9.88787 5.16912 9.3213 5.41126 8.81877 5.74731C8.41971 5.91533 8.02558 6.08829 7.63144 6.27608C7.56739 6.30573 7.52798 6.3502 7.48857 6.39468C6.50815 6.87898 5.56715 7.42752 4.69513 8.10454C4.54733 8.2182 4.40938 8.34175 4.27143 8.46035C3.77383 8.98912 3.31565 9.54261 2.92644 10.1406C2.92644 10.1653 2.93137 10.19 2.93137 10.2147C2.93629 10.2246 2.93629 10.2345 2.93629 10.2394C2.93629 10.2443 2.93629 10.2493 2.93629 10.2493C2.94615 10.2987 2.96093 10.3432 2.97571 10.3926C2.99049 10.3975 3.00034 10.4074 3.01512 10.4124C3.35999 10.3531 3.70979 10.2987 4.05466 10.2443C4.1729 10.2147 4.28621 10.185 4.40445 10.1653C5.05478 10.0467 5.71495 9.99725 6.3702 9.95277C6.58698 9.93795 6.80375 9.92312 7.02546 9.9083C7.11414 9.91324 7.20282 9.91818 7.2915 9.92807C7.27672 10.0022 7.22252 10.0664 7.11906 10.0862C7.07965 10.0911 7.04516 10.0961 7.00575 10.101C4.4685 11.6182 2.26134 13.6394 0.522212 16.0262C0.482798 16.0608 0.443385 16.0954 0.403971 16.135C0.359631 16.1794 0.339924 16.2289 0.334997 16.2783C0.320217 16.303 0.30051 16.3228 0.28573 16.3475C0.206903 16.4512 0.118223 16.5451 0.0393953 16.6539C-0.0886989 16.8367 0.123149 17.069 0.315291 17.0146C1.30556 16.7379 2.29582 16.471 3.29102 16.2091C3.43389 16.1844 3.57677 16.1498 3.71964 16.13C3.43389 16.7823 3.1777 17.4445 2.97078 18.1216C2.86732 18.3884 2.76879 18.6553 2.68503 18.9271C2.41406 19.5003 2.17266 20.0835 1.96081 20.6814C1.65043 21.5808 1.40409 22.5 1.21688 23.4291C1.11834 23.9282 1.04937 24.4322 1.02966 24.9363C0.881861 25.5787 0.788254 26.236 0.743913 26.8933C0.738987 26.9229 0.73406 26.9575 0.73406 26.9871C0.73406 26.997 0.738987 27.0069 0.738987 27.0168C0.729133 27.1996 0.714353 27.3825 0.714353 27.5653C0.714353 27.7383 0.931128 27.8964 1.08386 27.7778C1.47799 27.4764 1.87705 27.1749 2.27612 26.8735C2.3648 26.8241 2.45348 26.7747 2.54216 26.7203C2.52738 26.9278 2.50767 27.1305 2.47811 27.3331C2.47319 28.3264 2.55694 29.3147 2.63084 30.229C2.79835 32.2798 3.26638 34.3603 4.53255 35.9911C4.57196 35.9911 4.60645 35.996 4.64586 36.0109C6.16328 36.5891 7.64622 37.2513 9.12916 37.9184L9.12423 37.9135C9.12916 37.9184 9.13408 37.9184 9.13408 37.9233C9.65631 38.1605 10.1835 38.3928 10.7106 38.6251C10.5924 38.4076 10.4643 38.1902 10.351 37.9678C9.47402 36.2481 8.61678 34.2071 8.73502 32.2205C8.09455 28.5982 8.22757 24.8375 9.02569 21.2547C9.4691 19.2582 10.0702 17.2815 10.9028 15.4085C11.4743 14.1138 12.2281 12.6708 13.3563 11.7417C13.3908 11.6873 13.4203 11.633 13.4548 11.5836C13.7159 11.2179 13.9918 10.867 14.2776 10.526C14.7505 10.269 15.2186 10.0121 15.6915 9.7551C15.5684 9.93795 15.4501 10.1257 15.3368 10.3135C14.8096 11.0795 14.3367 11.8801 13.9327 12.7202C13.6026 13.2539 13.2774 13.7975 12.9769 14.3559C12.903 14.5931 12.8242 14.8303 12.7601 15.0725C12.6567 15.2751 12.568 15.4876 12.4744 15.6902C12.4744 15.7742 12.4596 15.8582 12.4202 15.9472C11.3363 18.4823 10.5776 21.1954 10.3017 23.943C10.1785 25.1735 10.1391 26.4287 10.2229 27.6741C10.3116 28.5636 10.4692 29.4432 10.7205 30.2982C12.3561 35.8231 17.0464 40.1768 21.9238 42.9244C22.3475 43.0233 22.7663 43.1172 23.19 43.2111C25.402 43.6855 27.5944 44.1451 29.6045 45C30.0381 42.6378 30.3583 40.2658 30.1859 37.8542C30.0282 35.7045 29.4518 33.7673 28.3679 31.9141C27.9097 31.1333 27.4171 30.3723 26.9342 29.6063C26.3578 28.8057 25.7814 28.0052 25.2247 27.1947C24.3576 25.9296 23.9043 24.3779 23.2589 22.9596C24.7961 22.8014 26.4219 22.2578 27.8408 22.5988C28.698 22.8014 29.6341 23.2067 30.4224 23.7453C30.511 23.77 30.5997 23.7947 30.6884 23.8195C31.521 24.2494 32.3832 24.6052 33.2995 24.9462C34.1075 25.2476 34.8219 25.6282 35.3589 26.3249C35.8565 26.9773 36.3689 27.343 37.2015 27.4121C38.6105 27.5357 40.5664 27.3182 40.8522 25.6133C41.1231 24.0369 41.0739 22.0404 40.2807 20.6271Z" fill="black"/>
</g>
<defs>
<clipPath id="clip0">
<rect width="41" height="45" fill="white"/>
</clipPath>
</defs>
</svg>
