<svg width="50" height="48" viewBox="0 0 50 48" fill="none" xmlns="http://www.w3.org/2000/svg">
<g clip-path="url(#clip0)">
<path d="M11.2061 34.733C11.2061 34.733 9.22099 33.9706 7.23035 34.2471C5.23692 34.5235 4.00356 33.4847 4.43788 30.7453C4.8722 28.0059 5.57658 26.1601 4.01191 26.2215C2.44723 26.2829 0.18096 27.8132 0.0111283 31.0469C-0.158703 34.2806 1.45609 44.5234 18.119 47.4248C34.782 50.3262 44.1756 41.7505 48.4437 33.5099C51.4561 27.883 49.6381 25.4256 46.8539 22.9655C44.0698 20.5053 42.1293 20.7119 40.9544 21.3458C39.7795 21.9797 38.6742 24.0713 38.7967 24.5935C38.9192 25.1157 39.1642 25.3 39.9605 25.1464C39.9605 25.1464 43.2791 23.8311 44.1784 26.6571C45.0777 29.4831 42.2267 31.019 36.3745 30.9268C35.1801 33.3256 32.6271 38.4274 24.464 38.8268C16.301 39.2261 11.2061 34.733 11.2061 34.733Z" fill="black"/>
<path d="M12.3476 33.6159C12.3476 33.6159 11.1448 28.7738 10.6882 26.8665C10.2316 24.9592 11.916 22.7895 12.6817 22.0774C13.4473 21.3653 14.4607 19.7652 14.9507 19.0587C15.4407 18.3522 15.5939 17.1822 15.5632 15.3698C15.5326 13.5575 14.9006 5.56263 21.1927 3.08849C27.4848 0.614354 27.8746 -0.0279169 29.2611 7.92928e-06C30.6476 0.0279328 33.6266 1.84305 34.3282 2.62773C35.0298 3.41242 37.4826 7.65421 37.697 9.00577C37.9114 10.3573 38.5239 14.5461 37.8501 14.6829C37.1736 14.8197 36.7365 14.6689 34.6734 11.882C32.6104 9.09513 31.1515 8.36629 30.2717 8.34674C29.3919 8.32719 28.0945 11.0666 28.1948 12.0552C28.295 13.0437 29.6676 17.1794 32.8248 21.2089C35.982 25.2385 35.0938 29.5668 35.0938 29.5668C35.0938 29.5668 32.2262 35.9784 24.3861 36.3554C16.546 36.7323 12.3476 33.6159 12.3476 33.6159Z" fill="black"/>
</g>
<defs>
<clipPath id="clip0">
<rect width="50" height="48" fill="white"/>
</clipPath>
</defs>
</svg>
