<svg width="55" height="69" viewBox="0 0 55 69" fill="none" xmlns="http://www.w3.org/2000/svg">
<g clip-path="url(#clip0)">
<path d="M42.4899 18.6366L35.6028 13.0886L32.4124 21.3369L34.9843 22.3412C34.992 22.3701 34.9997 22.399 35.0075 22.4279C35.2476 23.3239 35.7303 25.1255 36.6932 28.7191C37.1011 30.2413 37.2022 31.505 37.0891 32.5473C37.0007 33.3351 36.8036 33.9868 36.4921 34.5969C36.0209 35.4976 35.285 36.335 34.0838 37.1319C33.4881 37.529 32.7638 37.9089 31.9303 38.2665L28.1561 24.1811L30.3231 20.8228L20.6501 7.72942L18.8197 23.9051L22.3755 25.73L26.1497 39.8154C25.4495 39.8998 24.8019 39.9494 24.2185 39.9302C23.2117 39.9108 22.3576 39.7679 21.6519 39.5233C20.5836 39.159 19.7978 38.6158 19.0695 37.7473C18.3508 36.8763 17.7203 35.6409 17.2608 33.926C16.2979 30.3324 15.8151 28.5308 15.5751 27.6348C15.5647 27.5963 15.5596 27.577 15.5518 27.5481L17.2769 25.3924L10.3828 19.8566L7.18979 28.0952L9.76161 29.0996C9.76935 29.1285 9.7771 29.1574 9.78484 29.1863C10.0249 30.0823 10.5077 31.8839 11.4706 35.4775C12.0282 37.5585 12.8457 39.415 13.9996 40.9852C14.8613 42.1586 15.9188 43.1763 17.1295 43.9568C18.9518 45.131 21.0914 45.7555 23.346 45.8846C24.7314 45.9677 26.191 45.8657 27.6967 45.6275L29.5552 52.6243C29.9837 54.2236 31.6206 55.1687 33.2199 54.7402C34.8192 54.3116 35.7643 52.6747 35.3357 51.0754L33.4799 44.0882C34.6506 43.6403 35.7332 43.1333 36.7297 42.5359C38.0471 41.7492 39.2121 40.8175 40.1688 39.7247C41.6125 38.0988 42.5706 36.0866 42.9239 33.9371C43.2869 31.7849 43.0915 29.5139 42.4668 27.1824C41.5039 23.5888 41.0211 21.7872 40.781 20.8912C40.7707 20.8527 40.7655 20.8334 40.7578 20.8045L42.4899 18.6366Z" fill="black"/>
</g>
<defs>
<clipPath id="clip0">
<rect width="39.9074" height="59.9156" fill="white" transform="translate(0 10.3289) rotate(-15)"/>
</clipPath>
</defs>
</svg>
