<svg width="48" height="48" viewBox="0 0 48 48" fill="none" xmlns="http://www.w3.org/2000/svg">
<g clip-path="url(#clip0)">
<path d="M47.8 21.4C46.72 4.7 29.78 0 29.78 0C29.78 0 32.98 4.58 32.07 12.24C31.6 16.26 29.78 18.75 28.15 20.21C27.94 20.21 27.73 20.2 27.51 20.16C26.51 19.98 25.69 16.33 25.91 15.39C26.13 14.45 27.62 11.12 28.19 9.34C28.76 7.56 25.24 4.24 24.1 3.41C22.96 2.58 19.78 6.97 19.44 8.04C19.1 9.11 19.1 19.31 19.1 19.31L18.93 19.45C17.54 17.94 16.19 15.64 15.79 12.26C14.9 4.58 18.09 0 18.09 0C18.09 0 1.15 4.7 0.0700011 21.4C-1.01 38.1 11.34 42.5 11.34 42.5C11.34 42.5 5.79 36.41 8.63 29.36C10.86 35.33 15.68 36.96 15.68 36.96C15.68 36.96 10.66 28.56 15.15 23.24C15.98 24.55 17.66 27.44 18.64 30.75C18.98 31.92 19.47 32.88 20.01 33.72V33.73C20.18 34.04 20.4 34.39 20.63 34.75C20.78 35.2 20.93 35.65 21.09 36.1C21.1 36.14 21.12 36.19 21.13 36.23C21.16 36.73 21.19 37.24 21.21 37.74C21.24 38.53 21.33 39.4 21.12 40.17C20.83 41.24 19.8 41.67 18.77 41.37C17.56 41.02 17.3 40.2 17.39 39.05C17.41 38.84 17.21 38.55 16.99 38.52C15.76 38.35 14.95 39.2 14.79 40.37C14.62 41.67 15.08 43.03 15.84 44.08C17.46 46.33 20.58 47.44 23.29 47.18C24.68 47.05 25.91 46.52 27 45.68C28.1 44.83 29.29 43.76 29.96 42.53C30.41 41.7 30.63 40.76 30.67 39.79C30.85 38.96 30.95 38.07 30.97 37.13C30.97 37.12 30.97 37.12 30.97 37.11C30.97 37.1 30.97 37.09 30.97 37.09C30.97 37.07 30.97 37.05 30.97 37.03C31.06 33.29 30.45 31.24 30.33 27.95C30.21 24.63 29.72 22.5 31.23 22.54C31.52 22.57 31.78 22.62 31.98 22.66C31.99 22.66 32 22.66 32.01 22.67C32.22 22.75 32.39 22.84 32.49 22.95C37.37 28.25 32.19 36.94 32.19 36.94C32.19 36.94 37.01 35.31 39.24 29.34C42.07 36.39 36.53 42.48 36.53 42.48C36.53 42.48 48.89 38.1 47.8 21.4Z" fill="black"/>
</g>
<defs>
<clipPath id="clip0">
<rect width="47.87" height="47.24" fill="white"/>
</clipPath>
</defs>
</svg>
