<svg width="29" height="54" viewBox="0 0 29 54" fill="none" xmlns="http://www.w3.org/2000/svg">
<path d="M25.6346 16.3855C25.001 15.9757 24.3856 15.5111 23.8548 14.9781C23.7917 14.9121 23.7248 14.8472 23.6606 14.7774C22.94 14.167 22.3162 13.4267 21.8377 12.4772C20.7124 10.2294 20.1755 7.96397 20.9093 5.50922C21.408 3.83146 22.0988 2.25535 23.479 1.08237C23.6023 0.97445 23.6751 0.618759 23.5947 0.50357C23.4873 0.349985 23.1815 0.208468 23.0067 0.247332C22.2738 0.415973 21.5466 0.620454 20.8416 0.877003C18.6108 1.69035 16.5792 2.9063 14.6517 4.26423C13.5168 5.06407 12.5449 6.10201 11.5044 7.03816C11.2589 7.25787 11.1889 7.51737 11.251 7.86983C11.4058 8.74904 11.614 9.64289 11.5933 10.528C11.5509 12.2942 11.4178 14.0601 11.2247 15.8172C11.1219 16.7493 10.9456 17.7137 10.5876 18.5694C9.82255 20.3896 8.42027 21.6639 6.73497 22.6371C6.42499 22.8161 6.11293 22.9874 5.78761 23.1706C6.56146 25.0776 7.31483 26.8781 7.01882 28.9866C6.93279 29.5989 6.91852 29.9429 7.04495 30.1826C8.64423 30.585 10.2189 31.2015 11.65 32.0185C12.7697 32.6582 13.9091 33.5083 14.7347 34.5384C14.05 34.3664 13.3674 34.1564 12.6914 33.9405C12.502 33.8796 12.3165 33.8176 12.1271 33.7567C12.0703 33.7139 12.0173 33.6701 11.9566 33.6284C11.9901 33.6609 12.0207 33.6982 12.0504 33.7317C11.3821 33.5138 10.7128 33.2919 10.0372 33.0925C9.55863 32.9519 9.07378 32.8338 8.58718 32.7245C7.94157 32.5294 7.28302 32.3627 6.6374 32.1676C6.54323 32.1391 6.43262 32.1565 6.33457 32.1747C4.69035 32.4606 3.38545 33.3021 2.41328 34.6595C1.0806 36.5125 0.680652 38.5868 1.08299 40.8263C1.10244 40.9289 1.14174 41.0594 1.18944 41.1751C1.39114 41.129 1.59108 41.0917 1.79136 41.0708C2.03653 40.789 2.28763 40.5138 2.58196 40.2768C3.27709 39.7242 4.11117 39.4577 4.96507 39.2647C5.48726 38.9869 6.03139 38.7447 6.60723 38.5438C7.65352 38.1785 8.69031 37.9155 9.75513 37.8937C8.79379 38.4517 7.8617 39.0724 7.12973 39.8548C6.27588 40.7655 5.94589 41.8626 5.89216 43.0221C5.42435 44.1273 4.7672 45.126 3.9287 46.0325C3.52464 46.4734 3.12859 46.9287 2.76776 47.4077C2.68602 47.5169 2.62069 47.6258 2.56511 47.7403C2.83437 48.6011 3.10188 49.4707 3.48213 50.2849C3.81618 50.4852 4.16455 50.6775 4.53427 50.781C4.89528 50.8828 5.18331 51.0498 5.42035 51.2721C5.7834 51.4272 6.11566 51.6819 6.39631 51.9132C6.90669 52.3397 7.34339 52.8442 7.87544 53.2442C8.1174 53.4236 8.37159 53.5874 8.63033 53.7375C8.73815 53.725 8.85085 53.7153 8.96075 53.7106C9.05496 53.6934 9.14918 53.6763 9.24339 53.6592C9.43929 53.4695 9.64111 53.2864 9.85479 53.1168C9.85862 53.1157 9.85758 53.1119 9.86142 53.1108C10.0503 52.9105 10.2529 52.7148 10.4662 52.5287C10.5575 52.2717 10.6596 52.0243 10.7694 51.7748C10.6916 51.3644 10.5126 50.9605 10.4101 50.565C10.1079 49.4144 9.98829 48.2229 10.2391 47.0766C10.1421 46.7169 10.0974 46.3681 10.18 46.0637C10.6648 44.3191 11.3348 42.62 11.9972 40.8317C12.9413 39.7059 14.0962 38.797 15.4625 38.3205C16.0477 38.2456 16.6283 38.1388 17.2055 38.0038C17.3363 38.0764 17.4912 38.101 17.6576 38.0769C20.5788 37.6705 23.4459 36.9718 26.2233 35.9861C26.5282 35.9412 26.8259 35.8692 27.1044 35.7567C27.3612 35.7621 27.6221 35.783 27.8702 35.741C28.0915 35.7062 28.4045 35.5844 28.4716 35.4211C28.5294 35.2686 28.3597 34.9451 28.1997 34.8099C28.0721 34.7033 27.9323 34.6124 27.7858 34.5275C27.6813 34.4146 27.5359 34.3335 27.3852 34.3244C27.3471 34.3056 27.3102 34.2907 27.2722 34.2719C25.6568 33.5502 24.1608 32.676 23.0642 31.2212C22.392 30.3322 21.7344 29.4517 21.7107 28.2799C21.7044 27.9664 21.6904 27.6549 21.6802 27.3423C21.8251 26.3988 22.0709 25.478 22.4157 24.5884C22.6085 24.2958 22.8122 24.0127 23.0423 23.7515C24.6737 21.876 27.338 20.8835 28.3644 18.5365C28.5854 18.3483 28.7046 18.1336 28.6648 17.7876C28.6482 17.6344 28.5966 17.5197 28.5329 17.4208C27.4999 17.3468 26.485 16.9278 25.6346 16.3855Z" fill="black"/>
</svg>
