<svg width="55" height="46" viewBox="0 0 55 46" fill="none" xmlns="http://www.w3.org/2000/svg">
<g clip-path="url(#clip0)">
<path d="M50.48 18.25C50.38 18.17 50.29 18.08 50.2 18C50.18 17.99 50.16 17.98 50.14 17.96C50.11 17.94 50.08 17.91 50.05 17.88C47.68 16.14 44.1 15.8 40.51 15.85C40.52 15.98 40.53 16.11 40.54 16.23C40.6 16.75 40.61 17.27 40.61 17.79C40.61 18.31 40.57 18.82 40.48 19.33C40.47 19.38 40.46 19.44 40.45 19.49C40.93 19.51 41.41 19.58 41.89 19.64C42.43 19.71 42.98 19.75 43.51 19.88C44.44 20.11 45.3 20.62 46.01 21.25C47.12 21.99 48.12 23.18 49.01 25.08C49.23 26.79 47.8 28.35 45.67 29.9C43.14 31.83 40.89 29.71 41.09 27.39C41.2 25.81 41.15 24.04 41.15 21.97C34.9 23.34 33.44 26.26 31.98 30.96C30.52 23.37 37.11 20.48 37.11 20.48C37.11 20.48 37.89 16.97 37.11 15.17C32.95 12.5 27.42 0.38 27.25 0.02V0V0.01V0V0.02C27.09 0.38 21.55 12.5 17.39 15.17C16.61 16.98 17.39 20.48 17.39 20.48C17.39 20.48 23.98 23.37 22.52 30.96C21.06 26.26 19.6 23.35 13.35 21.97C13.35 24.04 13.3 25.81 13.41 27.39C13.61 29.72 11.36 31.84 8.82 29.9C6.7 28.35 5.27 26.79 5.49 25.08C6.39 23.19 7.38 21.99 8.49 21.25C9.2 20.62 10.06 20.11 10.99 19.88C11.52 19.75 12.07 19.71 12.61 19.64C13.09 19.58 13.57 19.51 14.05 19.49C14.04 19.44 14.03 19.38 14.02 19.33C13.93 18.82 13.89 18.31 13.89 17.79C13.89 17.27 13.9 16.75 13.96 16.23C13.97 16.11 13.98 15.98 13.99 15.85C10.4 15.8 6.82 16.13 4.45 17.88C4.42 17.9 4.39 17.93 4.36 17.96C4.34 17.97 4.32 17.98 4.3 18C4.2 18.08 4.11 18.16 4.02 18.24C0.720002 21.08 -0.289997 25.25 0.0600025 29.21C0.690003 31.83 2.15 34.83 5.37 37.04C5.96 37.41 6.6 37.78 7.26 38.15C7.58 38.31 7.86 38.46 8.13 38.62C15.05 42.28 24.61 45.49 27.25 45.95C29.89 45.48 39.45 42.28 46.37 38.62C46.64 38.47 46.92 38.31 47.24 38.15C47.9 37.78 48.54 37.41 49.13 37.04C52.35 34.83 53.81 31.83 54.44 29.21C54.79 25.26 53.79 21.09 50.48 18.25ZM27.26 21.32L23.94 18L27.26 12.26L30.58 18L27.26 21.32Z" fill="black"/>
</g>
<defs>
<clipPath id="clip0">
<rect width="54.51" height="45.96" fill="white"/>
</clipPath>
</defs>
</svg>
