<svg width="37" height="51" viewBox="0 0 37 51" fill="none" xmlns="http://www.w3.org/2000/svg">
<path d="M36.4988 36.5537C35.9977 36.0013 35.5925 35.5114 35.134 35.0528C33.4919 33.4268 31.37 33.3851 29.2374 33.3538C26.6144 33.3121 24.2686 34.2294 21.9867 35.355C20.6112 36.0325 19.2784 36.7934 17.9455 37.5439C16.6553 38.2735 15.6743 39.3262 14.864 40.5249C13.6164 42.3593 15.2052 44.6316 16.8472 45.1006C18.2974 45.5175 19.6516 45.1631 20.9524 44.6941C22.0827 44.2772 23.1383 43.6205 24.1513 42.9639C24.5458 42.7137 24.8337 42.2238 25.0256 41.7861C25.2176 41.3379 24.9297 40.9939 24.4392 40.9418C23.6714 40.8584 22.9037 40.8271 22.0614 40.7646C21.9761 40.4936 22.1253 40.1913 22.4239 39.9725C22.8824 39.6493 23.3409 39.2845 23.8527 39.0865C25.7294 38.3673 27.6487 37.9191 29.7173 38.1067C31.3487 38.2527 32.7455 40.108 32.6495 41.6506C32.5642 42.9847 31.9031 44.0166 31.1034 45.0068C28.7789 47.8836 25.6761 49.4679 22.072 50.3225C20.1421 50.7812 18.2014 51 16.2288 51.0105C15.4397 51.0209 14.7573 50.729 14.0429 50.4268C13.0939 50.0203 12.1876 49.5721 11.4412 48.8425C9.11669 46.5807 8.06107 43.8394 8.03975 40.65C8.02908 38.0546 9.15934 35.9596 10.8227 34.0834C11.9957 32.7597 13.1686 31.4256 14.4801 30.2373C16.9006 28.0172 19.7795 26.6831 23.1063 26.3183C24.5031 26.1723 25.8787 25.9326 27.2968 26.1202C30.7196 26.558 33.5879 28.0068 35.7951 30.6126C36.2536 31.1546 36.5308 31.8737 36.7441 32.5617C37.064 33.5831 37.064 34.6567 36.84 35.699C36.7761 35.9804 36.6268 36.2514 36.4988 36.5537Z" fill="black"/>
<path d="M2.68702 41.244C2.24984 40.7541 1.75935 40.3059 1.39682 39.7848C0.383848 38.3255 0.0959515 36.6474 0.0106489 34.938C-0.106642 32.4365 0.661081 30.1539 1.81267 27.965C3.57203 24.6088 6.12045 21.9092 9.13803 19.6266C12.4542 17.1251 16.2928 16.0306 20.4086 15.6971C22.7225 15.5095 25.0256 15.4157 27.2968 15.916C29.4187 16.385 31.466 17.0521 33.2467 18.3341C34.0997 18.9491 34.9527 19.5745 35.7844 20.2207C36.1363 20.5021 36.1043 20.7314 35.6671 20.8148C35.0807 20.9295 34.4729 20.9816 33.8758 20.9712C33.1507 20.9607 32.4256 20.8669 31.7006 20.8044C28.0645 20.4813 24.4712 20.8774 21.0058 21.8571C17.1778 22.9411 13.6271 24.6818 10.6841 27.3813C9.23399 28.7051 7.79451 30.0601 6.49365 31.5297C5.2461 32.9368 4.47837 34.6566 3.81728 36.4181C3.2948 37.8148 2.99624 39.2532 2.94293 40.7333C2.94293 40.8688 2.88961 40.9938 2.86829 41.1293C2.81497 41.171 2.75099 41.2023 2.68702 41.244Z" fill="black"/>
<path d="M6.05646 16.6139C6.26971 15.655 6.6749 14.8003 7.29335 14.0915C8.58355 12.6323 9.92706 11.2356 11.2386 9.79723C13.6697 7.1185 15.8236 4.27301 17.0072 0.82298C17.0925 0.58325 17.1991 0.353943 17.3484 -0.0108643C18.4787 0.927211 19.5876 1.76105 20.5899 2.70955C22.0614 4.09582 23.5222 5.50293 24.8444 7.01427C25.8573 8.16081 26.6677 9.48454 27.5634 10.7353C27.8513 11.1314 28.1072 11.5483 28.3418 11.9756C28.4377 12.1424 28.4484 12.3509 28.5017 12.5385C28.3204 12.5802 28.1392 12.6531 27.9686 12.6531C25.804 12.5802 23.6395 12.476 21.4749 12.4343C18.9372 12.3926 16.4207 12.6948 14.0003 13.3411C11.4945 14.0081 8.9994 14.8003 6.81352 16.2804C6.64291 16.395 6.45098 16.4888 6.25905 16.5826C6.2164 16.6139 6.16309 16.6035 6.05646 16.6139Z" fill="black"/>
</svg>
