<svg width="40" height="51" viewBox="0 0 40 51" fill="none" xmlns="http://www.w3.org/2000/svg">
<g clip-path="url(#clip0)">
<path d="M13.36 17.35C13.47 17.05 13.44 16.73 13.27 16.45L6.96002 5.98L3.86002 0L2.76002 5.73H2.77002L0.0200183 19.1C-0.0499817 19.46 0.0700183 19.82 0.360018 20.1L6.42002 25.87L11.19 48.57C11.38 49.57 12.51 50.25 13.7 50.09C13.7 50.09 15.69 48.98 15.5 47.98L10.6 24.66L13.36 17.35Z" fill="black"/>
<path d="M9.20001 24.33C9.20001 24.33 21.83 25.28 22.16 22.31C22.33 20.62 18.07 21.24 18.16 19.13C18.2 18.06 26.13 15.91 37.36 15.62C35.66 18.76 31.21 22.7 31.21 22.7C31.21 22.7 36.37 25.58 39.32 29.35C35.73 30.22 26.15 28.48 25.32 30.05C25.74 31.95 26.77 35.87 26.77 35.87C26.77 35.87 19.92 39.46 11.66 37.52C10.75 33.06 11.18 27.82 11.18 27.82L9.20001 24.33Z" fill="black"/>
</g>
<defs>
<clipPath id="clip0">
<rect width="39.31" height="50.11" fill="white"/>
</clipPath>
</defs>
</svg>
