<svg width="45" height="51" viewBox="0 0 45 51" fill="none" xmlns="http://www.w3.org/2000/svg">
<g clip-path="url(#clip0)">
<path d="M0.0568297 26.4545C0.170485 27.3945 0.340967 28.3205 0.426207 29.2605C0.447515 29.5271 0.49724 29.7867 0.554068 30.0462C1.35675 31.2107 2.43647 32.1718 3.65825 32.9084C4.89424 33.659 6.59195 33.8975 7.60063 34.9638C8.1618 35.5601 8.46014 36.2827 8.69455 37.0333C9.08524 37.5664 9.35517 38.1697 9.66062 38.7801C10.4207 40.3023 11.7277 41.509 12.5872 42.9891C13.4112 44.4132 14.1002 45.9074 14.9953 47.2894C15.94 48.7556 17.1973 50.0323 18.8879 50.6216C20.6425 51.2389 22.5036 51.0004 24.2581 50.5023C25.6717 50.0955 27.8311 49.9762 28.8114 48.7696C29.7632 47.5981 30.1326 46.0197 30.9069 44.7359C32.5264 42.0491 33.9897 39.0186 36.6464 37.1876C39.0758 34.5008 42.0734 32.249 43.7356 28.8887C44.5738 27.1841 45 25.3742 45 23.5923C44.9148 23.3468 44.8224 23.1083 44.7372 22.8627C44.5312 22.2735 44.4246 21.7473 44.1405 21.2633C43.9771 20.9897 43.7711 20.7372 43.6006 20.4706C43.3023 20.19 42.9897 19.9234 42.6914 19.6428C42.0024 18.9764 41.2423 18.3731 40.7877 17.5172C40.4467 16.8718 40.2194 16.1773 39.8358 15.56C39.7932 15.4898 39.7506 15.4197 39.7009 15.3566C39.2818 15.4057 38.8769 15.553 38.5075 15.7704C38.3867 15.9669 38.2731 16.1703 38.1878 16.3808C38.06 16.6824 37.9676 16.9981 37.8895 17.3138C37.8469 17.5032 37.8185 17.8048 37.8256 17.882C37.8753 18.5274 38.4009 19.3131 38.7206 19.9865C39.1468 20.8775 39.3244 21.7754 39.1255 22.7505C39.0332 23.2135 38.8698 23.6414 38.6638 24.0483C38.4009 25.9564 36.959 27.8786 35.6093 29.3096C35.5383 29.1623 35.4744 29.022 35.3962 28.8817C34.7356 27.6611 33.8903 26.6649 32.9313 25.8652C32.6969 25.2479 32.5833 24.5814 32.562 23.8869C32.5122 21.9929 32.8816 20.0216 33.1942 18.1696C33.5067 16.3246 34.0111 14.62 34.6362 12.8942C34.8066 12.4242 34.9558 11.9472 35.0837 11.4632C35.0695 11.3088 35.0481 11.1545 35.0339 10.9931C34.9487 10.2285 34.97 9.44981 34.8208 8.69919C34.6575 7.85738 34.2313 7.24706 33.6133 6.65779C32.5975 5.69672 31.3189 5.09341 30.1326 4.37086C28.9108 3.62725 28.0016 2.71528 27.0071 1.71212C26.5028 1.20703 25.97 0.737025 25.3236 0.421343C25.146 0.33716 24.5777 0.105658 24.2084 0.0284902C23.9669 0.568655 23.8532 1.21405 23.8035 1.7963C23.8319 2.29438 23.8674 2.79947 23.9598 3.29053C24.116 4.12533 24.3504 5.07237 24.7269 5.9212C24.734 5.93523 24.7411 5.94225 24.7482 5.95628C24.8264 6.13165 24.9187 6.30704 25.004 6.48241C25.1815 6.80511 25.3875 7.09974 25.629 7.36632C26.4601 8.2853 27.7956 8.95875 28.1294 10.2285C28.1365 10.2636 28.1365 10.2916 28.1436 10.3267C28.1508 10.3337 28.1579 10.3407 28.165 10.3477C28.1579 10.3618 28.1579 10.3758 28.1508 10.3828C28.3923 11.6736 27.4262 12.761 26.9929 13.9044C26.7159 14.627 26.4317 15.3425 26.1405 16.051C25.9416 17.0191 25.8066 17.9942 25.7356 18.9834C25.1105 20.3583 24.5991 21.7754 24.5209 23.2416C23.9953 23.2486 23.4696 23.2766 22.944 23.3257C22.7238 23.1574 22.5036 22.996 22.2905 22.8136C22.1768 22.7154 22.0631 22.6172 21.9495 22.519C21.5872 22.035 21.2676 21.5369 20.9621 21.0318C20.8627 18.9834 21.5446 16.942 22.3544 15.0549C22.5036 14.5709 22.5888 14.1149 22.6314 13.6028C22.7025 12.6627 23.0221 11.842 22.7593 10.93C22.7451 10.916 22.738 10.9019 22.7238 10.8949C22.2833 10.481 21.7222 10.0601 21.0971 10.0882C20.8485 10.0952 20.6496 10.1864 20.4223 10.3407C20.2518 10.46 20.0316 10.6915 19.8611 10.8809C19.6977 11.0633 19.5414 11.2387 19.3852 11.4211C19.2289 12.0875 18.9163 12.7399 18.618 13.3362C18.6109 13.3432 18.6038 13.3502 18.6038 13.3572C18.5541 13.5326 18.5114 13.708 18.4617 13.8764C18.3552 14.2411 18.2344 14.6059 18.1208 14.9707C18.0497 14.8094 17.9716 14.641 17.8935 14.4867C17.5738 13.8553 17.2826 13.1959 17.0908 12.5154C17.0339 12.4453 16.9913 12.3611 16.9558 12.2769C16.9345 12.2418 16.9132 12.2138 16.8919 12.1717C16.3875 11.1685 16.8777 10.4109 17.0624 9.42175C17.2399 8.46068 17.0268 7.47856 17.3252 6.53152C17.5738 5.74582 18.0568 5.0864 18.7103 4.58131C18.8027 4.51116 18.895 4.45504 18.9945 4.3919C19.2857 3.78158 19.6409 3.19232 19.9108 2.60305C20.0955 2.20318 20.2802 1.76824 20.3583 1.29122C20.3512 1.29823 20.3725 1.05972 20.3725 1.02464C20.3725 0.989568 20.3583 0.877325 20.3583 0.863294C20.3441 0.800157 20.3157 0.715975 20.3086 0.680898C20.2944 0.666868 20.2234 0.547613 20.2234 0.540598C19.6054 -0.217036 18.6606 -0.0767349 17.8579 0.295068C17.7372 0.505521 17.6306 0.722993 17.5241 0.947477C17.4246 1.16495 17.3323 1.38943 17.2186 1.59988C17.1547 1.71914 17.0766 1.83138 17.0126 1.95064C17.0055 1.95765 17.0055 1.96467 17.0055 1.97168C16.9913 1.98572 16.9771 1.99975 16.9487 2.02781C16.9061 2.0699 16.8564 2.119 16.8066 2.16811C16.7924 2.17512 16.7782 2.18915 16.7356 2.21721C16.693 2.24527 16.6504 2.27333 16.6077 2.29438C16.4088 2.41364 16.1957 2.51886 15.9826 2.61707C15.5635 2.8135 15.1231 2.98187 14.7253 3.23441C13.9653 3.71845 13.262 4.44803 12.9992 5.31089C12.9921 5.3179 12.985 5.32491 12.9779 5.33193C12.9211 5.6897 12.7577 6.03344 12.5943 6.36315C12.573 6.40524 12.5162 6.5245 12.4878 6.58062C12.4736 6.62272 12.4594 6.6648 12.4451 6.70689C12.4238 6.77003 12.4096 6.83317 12.3883 6.89631C12.3031 7.219 12.2534 7.55573 12.2178 7.88544C12.1255 8.69919 12.09 9.50593 12.232 10.3197C12.3386 10.951 12.4594 11.5894 12.5091 12.2278C12.9211 13.722 13.0631 15.2934 13.2833 16.8438C13.5249 18.5414 13.8658 20.218 14.0789 21.9087C14.1073 21.9999 14.1287 22.0841 14.1571 22.1753C14.4057 22.8627 14.704 23.5432 14.91 24.2447C14.9313 24.3149 14.9526 24.392 14.974 24.4622C14.9882 24.4832 14.9953 24.5043 15.0095 24.5253C15.5706 25.4653 16.1602 26.3072 16.6006 27.3173C17.4744 29.3377 18.135 31.7088 18.0426 33.9186C18.0284 34.1852 17.8579 34.4447 17.5809 34.5149C14.8035 35.2023 13.4396 30.7828 12.4878 29.015C11.4933 27.156 10.0371 25.5145 9.76007 23.3538C9.68193 22.7224 9.66772 22.0841 9.53986 21.4597C9.42621 20.8915 9.26993 20.3373 9.206 19.762C9.06394 18.4853 9.24152 17.2226 9.54697 15.9879C9.56117 15.9458 9.58248 15.9107 9.59669 15.8757C9.66062 15.4407 9.75296 15.0058 9.88793 14.5568C10.0513 14.0237 9.96607 13.5747 9.73876 13.2169C9.58248 13.1468 9.42621 13.0836 9.24152 13.0345C9.14207 13.0065 9.03552 12.9854 8.92897 12.9574C8.88635 12.9504 8.86504 12.9433 8.85083 12.9363C8.83663 12.9363 8.81532 12.9363 8.7727 12.9363C8.69456 12.9363 8.60932 12.9363 8.53118 12.9363C8.50987 12.9433 8.39621 12.9644 8.3678 12.9714C7.66457 13.1889 6.94002 13.722 6.41437 14.3183C6.19417 14.5638 5.95265 14.9356 5.78217 15.3074C5.6472 15.6021 5.49092 16.1703 5.39858 16.5982C5.28493 17.1524 5.18548 17.6926 5.05052 18.2328C4.85162 19.9164 4.78769 21.6211 5.11445 23.2486C5.51934 25.2409 6.35754 27.1139 7.23126 28.9729C6.45699 28.552 5.68271 28.1381 4.90134 27.7172C4.76638 27.6471 4.62431 27.5699 4.48935 27.4927C4.25493 27.4787 4.01342 27.3805 3.82873 27.2261C3.7577 27.163 3.69377 27.0929 3.62984 27.0297C3.61563 27.0227 3.60853 27.0157 3.59432 27.0087C3.59432 27.0087 3.52329 26.9666 3.46646 26.9315C3.46646 26.9105 3.45936 26.8824 3.45936 26.8614C3.28177 26.6719 3.11129 26.4685 2.96212 26.251C2.85557 26.1037 2.76322 25.9494 2.68509 25.788C2.64247 25.7109 2.60695 25.6267 2.57143 25.5495C2.46488 25.297 2.44357 25.2479 2.5075 25.3952C2.47198 25.304 2.42937 25.2198 2.39385 25.1286C2.23757 24.7288 2.19495 24.3008 2.15233 23.8799C2.14523 23.8238 2.14523 23.5502 2.14523 23.7817C2.14523 23.6975 2.10971 23.5993 2.0884 23.5081C2.00316 23.445 1.91792 23.3889 1.83268 23.3257C1.56275 23.2556 1.27151 23.2416 0.987376 23.2836C0.703242 23.5853 0.468829 23.929 0.28414 24.3289C-0.0639244 25.0444 -0.0355126 25.7109 0.0568297 26.4545Z" fill="black"/>
</g>
<defs>
<clipPath id="clip0">
<rect width="45" height="51" fill="white" transform="translate(45 51) rotate(-180)"/>
</clipPath>
</defs>
</svg>
