<svg width="54" height="61" viewBox="0 0 54 61" fill="none" xmlns="http://www.w3.org/2000/svg">
<path d="M0 20.7906C0 20.7906 15 12.5 27 0C27 3.73432 27 9.44463 27 9.44463C27 9.44463 20.1767 17.3379 13.5663 20.7906C8.9237 20.7906 0 20.7906 0 20.7906Z" fill="black"/>
<path d="M53.5 20.7906C53.5 20.7906 39.5 14.5 27 0C27 3.73432 27 9.44463 27 9.44463C27 9.44463 33.8233 17.3379 40.4337 20.7906C45.0763 20.7906 53.5 20.7906 53.5 20.7906Z" fill="black"/>
<path d="M1.05414 24.8086C1.05414 24.8086 8.25895 26.0761 12.0582 34.4645C15.8575 42.8528 27 60.0243 27 60.0243V45.294C27 45.294 21.4438 35.5912 19.6144 31.9273C17.7851 28.2634 15.8876 25.7262 14.1285 24.8086C12.2991 24.8086 1.05414 24.8086 1.05414 24.8086Z" fill="black"/>
<path d="M52.9458 24.8086C52.9458 24.8086 45.741 26.0761 41.9418 34.4645C38.1425 42.8528 27 60.0243 27 60.0243V45.294C27 45.294 32.5562 35.5912 34.3856 31.9273C36.2149 28.2634 38.1124 25.7262 39.8715 24.8086C41.7008 24.8086 52.9458 24.8086 52.9458 24.8086Z" fill="black"/>
<path d="M27 31.0098C30.6908 31.0098 33.6828 28.0118 33.6828 24.3136C33.6828 20.6154 30.6908 17.6174 27 17.6174C23.3092 17.6174 20.3172 20.6154 20.3172 24.3136C20.3172 28.0118 23.3092 31.0098 27 31.0098Z" fill="black"/>
</svg>
