<svg width="36" height="44" viewBox="0 0 36 44" fill="none" xmlns="http://www.w3.org/2000/svg">
<path d="M5.17528 0C1.81589 0 0 3.03448 0 6.57471V37.4713C0 37.5632 0 37.6552 0 37.7011C0 39.3563 0.635561 40.9195 1.72509 42.023C2.76923 43.1264 4.26734 43.954 5.94704 43.954H12.9836H36V37.4713V36.7816V0H5.17528ZM14.5725 14.2529L17.3417 7.72414L20.1564 14.2529L26.6028 17.0575L20.1564 19.8621L17.3871 26.3908L14.6179 19.8621L8.1715 17.0575L14.5725 14.2529ZM31.0517 37.7011C31.0517 39.0805 32.3682 39.0345 32.3682 40.1839H6.12863C4.76671 40.1839 3.67718 39.0805 3.67718 37.7011C3.67718 36.3218 4.76671 35.2184 6.12863 35.2184H32.3682C32.3682 36.4138 31.0517 36.3218 31.0517 37.7011ZM32.459 30.4828H24.9685L29.6898 27.6782L32.459 22.8966V30.4828ZM32.459 11.0805L29.8714 6.62069L25.4678 4H32.459V11.0805Z" fill="black"/>
</svg>
