<svg width="31" height="55" viewBox="0 0 31 55" fill="none" xmlns="http://www.w3.org/2000/svg">
<g clip-path="url(#clip0)">
<path d="M27.42 23.99C16.12 0 15.25 0 15.25 0C15.25 0 14.38 0 3.08 23.99C-6.58 44.48 9.15 52.48 13.93 54.38V47.57L6.25 41.37L6.26 41.36H6.25L4.38 37.97L7.9 39.32L7.91 39.31L13.94 44.17V35.93L8.5 31.57L8.51 31.56H8.5L6.63 28.17L10.15 29.53L10.16 29.52L13.94 32.57V19.2H13.97L15.26 13.98L16.57 19.2H16.58V32.63L20.44 29.52L23.95 28.17L22.08 31.56L22.09 31.57L16.58 36.02V44.26L22.69 39.33L22.7 39.34L26.21 37.99L24.34 41.38L24.35 41.39L16.58 47.65V54.39C21.35 52.48 37.07 44.48 27.42 23.99Z" fill="black"/>
</g>
<defs>
<clipPath id="clip0">
<rect width="30.49" height="54.37" fill="white"/>
</clipPath>
</defs>
</svg>
