<svg width="47" height="46" viewBox="0 0 47 46" fill="none" xmlns="http://www.w3.org/2000/svg">
<path d="M41.2321 9.12098C39.1886 9.38441 37.3759 9.35148 36.453 9.31855C36.7167 5.99285 36.5189 3.81962 36.5189 3.81962C36.5189 1.71225 30.5863 0.0329378 23.2363 0.0329378C15.9523 1.01253e-05 10.0196 1.71225 10.0196 3.7867C10.0196 3.88548 10.0526 3.98426 10.0526 4.08305C10.0196 4.80745 9.95372 6.71726 10.1515 9.31855C9.16269 9.35148 7.54769 9.35148 5.76788 9.12098C2.8345 8.75878 0.230715 9.51612 0 10.2735C1.35133 11.2613 3.42777 15.509 3.98808 16.7931C4.11992 17.2212 4.25175 17.6493 4.41655 18.1102C4.91094 19.5261 5.50421 20.9091 6.26227 22.2262C7.02034 23.5433 7.9432 24.8275 9.12973 25.9141C9.42637 26.1775 9.75596 26.441 10.0526 26.6715C10.3822 26.9019 10.7118 27.1324 11.0743 27.33C11.7665 27.7581 12.5245 28.0544 13.2826 28.2849C14.6339 28.68 16.0182 28.7788 17.3366 28.68C17.9958 29.5032 18.7209 30.2935 19.479 31.0508C20.6325 32.0716 21.6213 33.3228 20.8303 36.0888C20.0393 38.8547 17.831 38.262 16.1501 39.2828C14.5021 40.3035 13.9418 43.267 13.9418 43.267C13.9418 43.267 23.2363 49.3586 32.6627 43.267C32.6627 43.267 32.1024 40.3035 30.4544 39.2828C28.8064 38.262 26.5982 38.8547 25.7742 36.0888C24.9502 33.3228 25.7412 32.4009 27.1255 31.0508C27.9165 30.2935 28.6417 29.4703 29.3008 28.6471C30.751 28.8118 32.2342 28.713 33.7174 28.2849C34.4755 28.0544 35.2335 27.7251 35.9257 27.33C36.2882 27.1324 36.6178 26.9019 36.9474 26.6715C37.244 26.408 37.5736 26.1775 37.8703 25.9141C39.0568 24.8275 39.9797 23.5433 40.7377 22.2262C41.4958 20.9091 42.0891 19.4932 42.5834 18.1102C42.7482 17.6822 42.8801 17.2541 43.0119 16.7931C43.6052 15.509 45.6487 11.2613 47 10.2735C46.8022 9.51612 44.1985 8.75878 41.2321 9.12098ZM14.1396 25.8483C13.5792 25.6178 13.0849 25.3543 12.5905 24.9921C12.3597 24.8275 12.129 24.6299 11.8983 24.4324C11.7006 24.2019 11.4698 24.0372 11.2721 23.7738C9.69004 21.9628 8.73422 19.5261 8.14095 16.9907C7.97616 16.3651 7.84432 15.7065 7.74544 15.048L7.58064 14.1589L8.10799 14.1918L10.8436 14.3236C11.6017 18.0773 12.986 22.325 15.5238 26.2763C15.0624 26.1775 14.601 26.0458 14.1396 25.8483ZM23.2693 6.55262C18.9187 6.55262 15.359 5.79529 15.359 4.84038C15.359 3.88548 18.8857 3.12814 23.2693 3.12814C27.6529 3.12814 31.1795 3.88548 31.1795 4.84038C31.1795 5.79529 27.6529 6.55262 23.2693 6.55262ZM39.2546 15.048C39.1227 15.7065 38.9909 16.3651 38.859 16.9907C38.2658 19.5261 37.31 21.9628 35.7279 23.7738C35.5302 24.0043 35.3324 24.2019 35.1017 24.4324C34.871 24.6299 34.6732 24.8275 34.4095 24.9921C33.9481 25.3543 33.4208 25.6178 32.8604 25.8483C32.2672 26.0788 31.641 26.2434 31.0147 26.3422C33.5856 22.3909 35.0028 18.1102 35.7609 14.3565L38.892 14.1918L39.4193 14.1589L39.2546 15.048Z" fill="black"/>
</svg>
